<?xml version="1.0" standalone="no"?>
<!DOCTYPE svg PUBLIC "-//W3C//DTD SVG 1.1//EN" "http://www.w3.org/Graphics/SVG/1.1/DTD/svg11.dtd" >
<svg xmlns="http://www.w3.org/2000/svg" width="100%" height="100%">
<metadata>
Created by FontXChange 20110222 at Sat Jun  2 19:51:14 2018
 By Suzi Rubino
Copyright (c) 1986, 1990 Adobe Systems Incorporated.  All Rights Reserved.ITC Cheltenham is a registered trademark of International Typeface Corporation.
</metadata>
<defs>
<font id="Cheltenham-Book" horiz-adv-x="520" >
  <font-face 
    font-family="Cheltenham"
    font-weight="400"
    font-stretch="normal"
    units-per-em="1000"
    panose-1="2 0 5 3 0 0 0 0 0 0"
    ascent="800"
    descent="-200"
    x-height="478"
    cap-height="703"
    bbox="-246 -250 1073 931"
    underline-thickness="82"
    underline-position="-102"
    stemh=" 51 "
    stemv=" 96 "
    unicode-range="U+0020-FB02"
  />
    <missing-glyph />
    <glyph glyph-name="space" unicode=" " horiz-adv-x="260" 
 />
    <glyph glyph-name="exclam" unicode="!" horiz-adv-x="220" 
d="M130 189h-40c0 109 -38 421 -38 438c0 40 10 91 58 91s58 -51 58 -91c0 -17 -38 -329 -38 -438zM171 46c0 -33 -28 -61 -61 -61s-61 28 -61 61s28 61 61 61s61 -28 61 -61z" />
    <glyph glyph-name="quotedbl" unicode="&#x22;" horiz-adv-x="389" 
d="M114 481h-20l-33 196c-4 21 19 44 43 44s47 -23 43 -44zM295 481h-20l-33 196c-4 21 19 44 43 44s47 -23 43 -44z" />
    <glyph glyph-name="numbersign" unicode="#" horiz-adv-x="556" 
d="M503 296v-72h-110l-34 -224h-66l34 224h-125l-33 -224h-67l34 224h-108v72h119l19 125h-110v72h120l30 210h67l-31 -210h124l30 210h66l-29 -210h95v-72h-107l-17 -125h99zM355 421h-123l-18 -125h124z" />
    <glyph glyph-name="dollar" unicode="$" 
d="M234 439v205c-50 -6 -90 -55 -90 -106c0 -52 44 -86 90 -99zM281 315v-241c59 4 110 56 110 115c0 64 -50 112 -110 126zM234 681v94h47v-91c61 -4 155 -45 155 -116c0 -29 -19 -52 -49 -52c-26 0 -46 18 -46 44c0 19 9 31 9 41c0 32 -42 49 -69 46v-224
c121 -37 176 -105 176 -193c0 -101 -77 -180 -176 -193v-76h-47v75c-80 5 -182 61 -182 151c0 32 22 60 56 60c29 0 51 -24 51 -53c0 -17 -6 -26 -13 -34c-6 -8 -13 -14 -13 -24c0 -39 68 -64 101 -63v261c-82 32 -156 83 -156 179c0 92 69 153 156 168z" />
    <glyph glyph-name="percent" unicode="%" horiz-adv-x="780" 
d="M229 718c92 0 161 -73 161 -163s-65 -163 -161 -163c-93 0 -161 73 -161 163s68 163 161 163zM229 696c-74 0 -90 -81 -90 -141s16 -141 90 -141s90 81 90 141s-16 141 -90 141zM623 703h53l-517 -703h-55zM551 311c92 0 161 -73 161 -163s-65 -163 -161 -163
c-93 0 -161 73 -161 163s68 163 161 163zM551 289c-74 0 -90 -81 -90 -141s16 -141 90 -141s90 81 90 141s-16 141 -90 141z" />
    <glyph glyph-name="ampersand" unicode="&#x26;" horiz-adv-x="720" 
d="M727 59l25 -29c-30 -32 -76 -48 -119 -48c-63 0 -124 31 -167 77c-51 -49 -120 -77 -190 -77c-125 0 -242 80 -242 214c0 112 102 172 196 205c-23 47 -46 97 -46 150c0 104 79 170 180 170c82 0 157 -52 157 -139c0 -95 -93 -156 -175 -179c96 -154 8 -20 156 -233
c22 26 48 75 48 108c0 67 -61 21 -61 73v19h208v-17c0 -53 -49 -8 -91 -89c-33 -64 -53 -97 -73 -131c26 -38 87 -99 136 -99c21 0 44 10 58 25zM319 455l9 -17c67 28 122 62 122 142c0 55 -32 104 -92 104c-52 0 -83 -44 -83 -94c0 -46 23 -95 44 -135zM140 219
c0 -99 66 -183 170 -183c45 0 94 14 125 49c-63 82 -125 183 -185 277c-68 -23 -110 -68 -110 -143z" />
    <glyph glyph-name="quoteright" unicode="&#x2019;" horiz-adv-x="260" 
d="M111 459l-23 23c29 34 55 76 57 121c-8 -1 -17 -3 -25 -3c-32 0 -60 27 -60 60c0 35 28 61 63 61c51 0 72 -50 72 -94c0 -65 -39 -123 -84 -168z" />
    <glyph glyph-name="parenleft" unicode="(" horiz-adv-x="400" 
d="M418 -186v-35c-224 19 -356 256 -356 460v22c0 204 132 441 356 460v-35c-201 -27 -262 -257 -264 -432v-8c2 -175 63 -405 264 -432z" />
    <glyph glyph-name="parenright" unicode=")" horiz-adv-x="400" 
d="M-18 686v35c224 -19 356 -256 356 -460v-22c0 -204 -132 -441 -356 -460v35c201 27 262 257 264 432v8c-2 175 -63 405 -264 432z" />
    <glyph glyph-name="asterisk" unicode="*" 
d="M260 512c-12 -26 -47 -133 -79 -133c-17 0 -48 22 -48 40c0 30 80 90 103 110c-33 3 -107 6 -143 23c-7 6 -10 11 -10 20c0 19 10 50 33 50c30 0 100 -47 129 -65c-8 35 -24 92 -24 124c0 30 11 37 39 37s39 -7 39 -37c0 -32 -16 -89 -24 -124c29 18 99 65 129 65
c23 0 33 -31 33 -50c0 -9 -3 -14 -10 -20c-36 -17 -110 -20 -143 -23c23 -20 103 -80 103 -110c0 -18 -31 -40 -48 -40c-32 0 -67 107 -79 133z" />
    <glyph glyph-name="plus" unicode="+" 
d="M233 267v160h54v-160h160v-54h-160v-160h-54v160h-160v54h160z" />
    <glyph glyph-name="comma" unicode="," horiz-adv-x="260" 
d="M104 -159l-23 28c30 34 57 74 59 120c-4 0 -9 -2 -13 -2c-32 0 -60 25 -60 58c0 34 27 62 61 62c42 0 64 -43 64 -79c0 -68 -38 -143 -88 -187z" />
    <glyph glyph-name="hyphen" unicode="-" horiz-adv-x="260" 
d="M0 280h260v-82h-260v82z" />
    <glyph glyph-name="period" unicode="." horiz-adv-x="260" 
d="M191 46c0 -33 -28 -61 -61 -61s-61 28 -61 61s28 61 61 61s61 -28 61 -61z" />
    <glyph glyph-name="slash" unicode="/" horiz-adv-x="360" 
d="M342 703l-286 -874h-56l287 874h55z" />
    <glyph glyph-name="zero" unicode="0" 
d="M260 718c181 0 222 -226 222 -366c0 -141 -41 -367 -222 -367s-222 226 -222 366c0 141 41 367 222 367zM260 17c128 0 116 264 116 334c0 71 12 335 -116 335s-116 -264 -116 -334c0 -71 -12 -335 116 -335z" />
    <glyph glyph-name="one" unicode="1" 
d="M115 612v30l144 61h58v-608c0 -77 88 -22 88 -77v-18h-270v18c0 55 86 0 86 77v517h-106z" />
    <glyph glyph-name="two" unicode="2" 
d="M458 153l-5 -153h-409v62c169 238 311 314 311 473c0 76 -37 146 -120 146c-52 0 -96 -34 -96 -70c0 -32 34 -28 34 -68c0 -30 -23 -50 -52 -50c-41 0 -64 37 -64 74c0 98 113 151 195 151c118 0 214 -67 214 -194c0 -172 -205 -234 -353 -437h208c117 0 67 66 119 66h18
z" />
    <glyph glyph-name="three" unicode="3" 
d="M179 359v38h5c87 0 161 38 161 142c0 74 -39 142 -120 142c-27 0 -77 -13 -77 -48c0 -20 22 -31 22 -57c0 -30 -30 -49 -57 -49c-35 0 -62 32 -62 66c0 89 115 125 189 125c105 0 211 -58 211 -175c0 -104 -88 -160 -184 -163v-2c110 -2 213 -63 213 -183
c0 -131 -130 -210 -255 -210c-68 0 -190 39 -190 129c0 36 28 63 63 63c33 0 58 -20 58 -53c0 -30 -20 -38 -20 -50c0 -39 69 -52 92 -52c90 0 141 79 141 162c0 118 -56 175 -174 175h-16z" />
    <glyph glyph-name="four" unicode="4" 
d="M306 196h-279v45l316 477h59v-477h91v-45h-91v-111c0 -64 56 -24 56 -67v-18h-214v18c0 45 62 -1 62 67v111zM306 241v332l-220 -332h220z" />
    <glyph glyph-name="five" unicode="5" 
d="M87 703h251c78 0 39 35 77 35h18l-5 -127h-294l-8 -211c38 30 79 45 129 45c125 0 220 -101 220 -219c0 -145 -113 -241 -256 -241c-79 0 -180 39 -180 130c0 35 29 61 63 61c31 0 56 -24 56 -55c0 -32 -26 -34 -26 -53c0 -36 57 -46 86 -46c108 0 146 94 146 186
c0 90 -37 186 -140 186c-45 0 -87 -23 -116 -57l-33 18z" />
    <glyph glyph-name="six" unicode="6" 
d="M150 315v-38c0 -79 9 -255 119 -255c94 0 113 109 113 183c0 80 -13 178 -114 178c-44 0 -100 -28 -118 -68zM274 -15c-177 0 -230 185 -230 330c0 228 116 403 288 403c54 0 127 -27 127 -94c0 -34 -25 -58 -58 -58c-29 0 -55 18 -55 49c0 13 5 20 5 30
c0 24 -23 36 -44 36c-128 0 -152 -213 -154 -307c40 36 83 57 140 57c120 0 190 -100 190 -213c0 -120 -82 -233 -209 -233z" />
    <glyph glyph-name="seven" unicode="7" 
d="M422 616h-218c-107 0 -49 -57 -104 -57h-22l8 156c37 -11 75 -12 114 -12h279v-68l-54 -95c-78 -139 -122 -240 -122 -403c0 -51 4 -73 4 -93c0 -37 -19 -62 -58 -62c-49 0 -62 43 -62 84c0 135 108 328 175 445z" />
    <glyph glyph-name="eight" unicode="8" 
d="M255 314l-29 13c-69 -39 -115 -80 -115 -166c0 -88 58 -139 143 -139c83 0 149 40 149 130c0 96 -74 126 -148 162zM340 394l-11 -6l9 -4c84 -43 151 -83 151 -189c0 -78 -60 -210 -239 -210c-153 0 -220 96 -220 188c0 100 84 136 159 179c-71 32 -129 97 -129 177
c0 118 97 189 209 189c96 0 193 -57 193 -162c0 -87 -53 -122 -122 -162zM270 419l18 -9c54 31 93 73 93 141c0 77 -43 130 -122 130c-68 0 -113 -45 -113 -115c0 -80 62 -117 124 -147z" />
    <glyph glyph-name="nine" unicode="9" 
d="M370 388v38c0 79 -9 255 -119 255c-94 0 -113 -109 -113 -183c0 -80 13 -178 114 -178c44 0 100 28 118 68zM246 718c177 0 230 -185 230 -330c0 -228 -116 -403 -288 -403c-54 0 -127 27 -127 94c0 34 25 58 58 58c29 0 55 -18 55 -49c0 -13 -5 -20 -5 -30
c0 -24 23 -36 44 -36c128 0 152 213 154 307c-40 -36 -83 -57 -140 -57c-120 0 -190 100 -190 213c0 120 82 233 209 233z" />
    <glyph glyph-name="colon" unicode=":" horiz-adv-x="260" 
d="M191 46c0 -33 -28 -61 -61 -61s-61 28 -61 61s28 61 61 61s61 -28 61 -61zM191 432c0 -33 -28 -61 -61 -61s-61 28 -61 61s28 61 61 61s61 -28 61 -61z" />
    <glyph glyph-name="semicolon" unicode=";" horiz-adv-x="260" 
d="M104 -159l-23 28c30 34 57 74 59 120c-4 0 -9 -2 -13 -2c-32 0 -60 25 -60 58c0 34 27 62 61 62c42 0 64 -43 64 -79c0 -68 -38 -143 -88 -187zM191 432c0 -33 -28 -61 -61 -61s-61 28 -61 61s28 61 61 61s61 -28 61 -61z" />
    <glyph glyph-name="less" unicode="&#x3c;" 
d="M74 216v46l372 163v-53l-304 -133l304 -133v-53z" />
    <glyph glyph-name="equal" unicode="=" 
d="M447 348v-54h-374v54h374zM447 184v-54h-374v54h374z" />
    <glyph glyph-name="greater" unicode="&#x3e;" 
d="M446 262v-46l-372 -163v53l304 133l-304 133v53z" />
    <glyph glyph-name="question" unicode="?" horiz-adv-x="440" 
d="M210 187h-38v55c0 129 118 158 118 302c0 62 -34 136 -105 136c-24 0 -70 -12 -70 -41c0 -20 40 -12 40 -58c0 -31 -25 -55 -56 -55c-39 0 -62 30 -62 67c0 86 96 125 169 125c96 0 192 -63 192 -166c0 -150 -188 -164 -188 -329v-36zM255 47c0 -34 -27 -62 -61 -62
s-61 28 -61 62c0 33 28 60 61 60s61 -27 61 -60z" />
    <glyph glyph-name="at" unicode="@" horiz-adv-x="737" 
d="M312 178c84 2 129 182 129 245c0 31 -12 73 -49 73c-80 0 -134 -169 -134 -234c0 -33 11 -84 54 -84zM462 456l16 63h99l-78 -289c-2 -9 -2 -14 -2 -24c0 -13 4 -28 19 -28c64 0 153 122 153 240c0 143 -143 243 -269 243c-171 0 -311 -140 -311 -311s140 -308 311 -308
c108 0 194 58 248 139h66c-59 -118 -182 -196 -314 -196c-203 0 -367 162 -367 365s164 368 367 368c100 0 320 -69 320 -298c0 -157 -128 -274 -242 -274c-28 0 -56 23 -64 84c-35 -52 -63 -84 -122 -84c-80 0 -130 76 -130 151c0 113 97 231 213 231c47 0 77 -28 85 -72h2
z" />
    <glyph glyph-name="A" unicode="A" horiz-adv-x="660" 
d="M430 244l-121 293l-119 -293h240zM479 120l-32 76h-277l-25 -65c-6 -15 -17 -42 -17 -58c0 -45 51 -15 51 -55v-18h-178v18c0 43 40 -10 86 102l196 481l-12 30c-4 9 -14 30 -14 40c0 13 35 30 41 34c2 1 33 21 38 21s9 -16 10 -18l252 -610c38 -93 69 -34 69 -80v-18
h-224v18c0 38 52 9 52 48c0 16 -10 40 -16 54z" />
    <glyph glyph-name="B" unicode="B" horiz-adv-x="640" 
d="M194 42h128c101 0 163 51 163 156c0 120 -90 146 -194 146h-97v-302zM36 703h329c79 0 189 -41 189 -160c0 -104 -90 -165 -186 -174v-2c110 -2 228 -49 228 -176c0 -139 -138 -191 -256 -191h-304v18c0 44 55 -11 55 72v523c0 83 -55 28 -55 72v18zM194 386h89
c89 0 160 45 160 141c0 90 -49 134 -131 134h-118v-275z" />
    <glyph glyph-name="C" unicode="C" horiz-adv-x="640" 
d="M570 682v-184h-25c-61 0 -23 181 -195 181c-163 0 -196 -199 -196 -325c0 -133 49 -321 219 -321c97 0 141 60 186 112l34 -27c-61 -88 -127 -136 -238 -136c-204 0 -312 184 -312 370c0 162 99 369 301 369c102 0 146 -54 171 -54c9 0 14 7 16 15h39z" />
    <glyph glyph-name="D" unicode="D" horiz-adv-x="680" 
d="M191 42h98c171 0 246 114 246 316c0 153 -57 303 -229 303h-115v-619zM33 0v18c0 44 55 -11 55 72v523c0 83 -56 28 -56 72v18h290c198 0 324 -144 324 -342c0 -229 -162 -361 -320 -361h-293z" />
    <glyph glyph-name="E" unicode="E" horiz-adv-x="580" 
d="M32 0v18c0 44 55 -11 55 72v523c0 83 -54 28 -54 72v18h405c21 0 48 4 67 15v-174h-19c-66 0 -6 114 -150 114h-146v-270h77c107 0 41 67 103 67h17v-184h-17c-65 0 -8 72 -103 72h-77v-298h167c190 0 97 138 172 138h18v-183h-515z" />
    <glyph glyph-name="F" unicode="F" 
d="M194 658v-269h83c103 0 45 69 109 69h17v-185h-22c-60 0 -4 71 -104 71h-83v-254c0 -83 55 -28 55 -72v-18h-213v18c0 44 55 -11 55 72v523c0 83 -55 28 -55 72v18h410c21 0 48 4 67 15v-178h-25c-66 0 -4 118 -147 118h-147z" />
    <glyph glyph-name="G" unicode="G" horiz-adv-x="680" 
d="M650 83v-23c0 -54 -200 -78 -245 -78c-225 0 -362 130 -362 357c0 218 141 382 318 382c103 0 146 -58 166 -58c13 0 14 7 20 16h40v-186h-26c-73 0 -23 186 -199 186c-160 0 -203 -192 -203 -325c0 -157 42 -330 232 -330c104 0 127 54 127 147c0 170 -66 75 -66 145v18
h179c-14 -21 -12 -39 -12 -64v-147c0 -28 0 -37 31 -40z" />
    <glyph glyph-name="H" unicode="H" horiz-adv-x="700" 
d="M193 389h316v224c0 83 -55 28 -55 72v18h213v-18c0 -44 -55 11 -55 -72v-523c0 -83 55 -28 55 -72v-18h-213v18c0 44 55 -11 55 72v248h-316v-248c0 -83 55 -28 55 -72v-18h-213v18c0 44 55 -11 55 72v523c0 83 -55 28 -55 72v18h213v-18c0 -44 -55 11 -55 -72v-224z" />
    <glyph glyph-name="I" unicode="I" horiz-adv-x="280" 
d="M246 0h-213v18c0 44 55 -11 55 72v523c0 83 -55 28 -55 72v18h213v-18c0 -44 -55 11 -55 -72v-523c0 -83 55 -28 55 -72v-18z" />
    <glyph glyph-name="J" unicode="J" horiz-adv-x="420" 
d="M177 703h210v-18c0 -44 -53 11 -53 -72v-471c0 -70 -31 -160 -186 -160c-53 0 -134 15 -134 84c0 34 24 61 58 61c27 0 55 -18 55 -48c0 -13 -8 -22 -8 -34c0 -21 27 -26 45 -26c70 0 67 69 67 119v475c0 83 -54 28 -54 72v18z" />
    <glyph glyph-name="K" unicode="K" horiz-adv-x="660" 
d="M193 613v-217l238 216c6 7 17 19 17 29c0 32 -56 0 -56 44v18h224v-18c0 -35 -26 1 -92 -59l-236 -215l308 -337c50 -55 68 -18 68 -56v-18h-252v18c0 40 52 9 52 43c0 13 -12 24 -20 33l-251 272v-276c0 -83 53 -28 53 -72v-18h-210v18c0 44 54 -11 54 72v523
c0 83 -52 28 -52 72v18h208v-18c0 -44 -53 11 -53 -72z" />
    <glyph glyph-name="L" unicode="L" horiz-adv-x="560" 
d="M36 0v18c0 44 55 -11 55 72v523c0 83 -54 28 -54 72v18h212v-18c0 -44 -55 11 -55 -72v-568h162c166 0 100 132 161 132h23v-177h-504z" />
    <glyph glyph-name="M" unicode="M" horiz-adv-x="860" 
d="M660 90v532h-2l-222 -622h-55l-221 618h-2v-478c0 -140 68 -64 68 -122v-18h-187v18c0 58 64 -18 64 122v473c0 83 -57 28 -57 72v18h195l197 -539l195 539h188v-18c0 -44 -58 11 -58 -72v-523c0 -83 59 -28 59 -72v-18h-217v18c0 44 55 -11 55 72z" />
    <glyph glyph-name="N" unicode="N" horiz-adv-x="700" 
d="M150 626v-486c0 -140 69 -63 69 -122v-18h-187v18c0 59 63 -18 63 122v473c0 83 -57 28 -57 72v18h188l329 -500v360c0 140 -61 63 -61 122v18h177v-18c0 -59 -61 18 -61 -122v-563h-48z" />
    <glyph glyph-name="O" unicode="O" horiz-adv-x="740" 
d="M364 -18c-202 0 -320 180 -320 370s130 369 332 369s320 -180 320 -370s-130 -369 -332 -369zM367 19c178 0 213 188 213 329c0 134 -29 336 -207 336s-213 -188 -213 -329c0 -134 29 -336 207 -336z" />
    <glyph glyph-name="P" unicode="P" horiz-adv-x="600" 
d="M196 372h98c91 0 156 36 156 145c0 101 -72 144 -125 144h-129v-289zM318 330h-122v-240c0 -83 55 -28 55 -72v-18h-214v18c0 44 56 -11 56 72v523c0 83 -57 28 -57 72v18h316c92 0 209 -47 209 -180c0 -144 -127 -193 -243 -193z" />
    <glyph glyph-name="Q" unicode="Q" horiz-adv-x="740" 
d="M675 -89l6 -9c1 -2 10 -14 10 -18c0 -18 -68 -59 -127 -59c-132 0 -185 131 -248 152c-77 29 -145 60 -196 129c-52 71 -76 164 -76 246c0 190 130 369 332 369s320 -180 320 -370c0 -181 -120 -355 -305 -367v-2c73 -9 167 -90 234 -90c20 0 35 7 50 19zM367 19
c178 0 213 188 213 329c0 134 -29 336 -207 336s-213 -188 -213 -329c0 -134 29 -336 207 -336z" />
    <glyph glyph-name="R" unicode="R" horiz-adv-x="640" 
d="M195 384h100c78 0 160 34 160 144c0 91 -68 133 -132 133h-128v-277zM195 342v-252c0 -83 55 -28 55 -72v-18h-214v18c0 44 56 -11 56 72v523c0 83 -55 28 -55 72v18h316c74 0 213 -35 213 -170c0 -118 -106 -176 -211 -178v-2c48 -5 65 -30 88 -68l116 -189
c54 -88 86 -33 86 -78v-18h-150l-130 220c-58 99 -70 122 -139 122h-31z" />
    <glyph glyph-name="S" unicode="S" 
d="M33 182h32c37 0 25 -155 188 -155c81 0 150 55 150 139c0 199 -355 113 -355 368c0 107 88 187 195 187c76 0 111 -41 127 -41c8 0 15 7 20 13h39v-159h-31c-44 0 -21 145 -156 145c-64 0 -117 -42 -117 -108c0 -172 357 -98 357 -359c0 -129 -102 -230 -231 -230
c-64 0 -128 33 -147 33c-11 0 -21 -11 -25 -20h-46v187z" />
    <glyph glyph-name="T" unicode="T" horiz-adv-x="640" 
d="M368 658v-568c0 -83 60 -28 60 -72v-18h-223v18c0 44 60 -11 60 72v568h-55c-185 0 -85 -119 -166 -119h-19v179c19 -11 46 -15 67 -15h449c21 0 48 4 67 15v-179h-19c-81 0 19 119 -166 119h-55z" />
    <glyph glyph-name="U" unicode="U" horiz-adv-x="680" 
d="M485 703h174v-18c0 -53 -58 22 -58 -122v-339c0 -159 -103 -242 -257 -242c-162 0 -260 79 -260 235v396c0 83 -55 28 -55 72v18h213v-18c0 -44 -55 11 -55 -72v-405c0 -112 58 -178 172 -178c173 0 187 146 187 200v333c0 144 -61 69 -61 122v18z" />
    <glyph glyph-name="V" unicode="V" horiz-adv-x="660" 
d="M171 605l176 -467l166 441c6 15 14 39 14 55c0 43 -47 18 -47 51v18h170v-18c0 -41 -31 20 -73 -90l-232 -602h-50l-235 625c-27 72 -60 24 -60 67v18h210v-18c0 -38 -48 -9 -48 -47c0 -10 6 -24 9 -33z" />
    <glyph glyph-name="W" unicode="W" horiz-adv-x="920" 
d="M557 703v-18c0 -43 -56 -10 -56 -54c0 -11 7 -28 10 -38l142 -429l131 403c6 19 18 53 18 73c0 37 -51 6 -51 45v18h163v-18c0 -45 -33 18 -71 -100l-193 -596h-42l-153 464l-154 -464h-41l-202 617c-29 90 -58 37 -58 79v18h210v-18c0 -40 -54 -3 -54 -51
c0 -8 4 -20 7 -28l143 -432l122 367l-23 71c-27 82 -60 26 -60 73v18h212z" />
    <glyph glyph-name="X" unicode="X" horiz-adv-x="640" 
d="M288 310l-129 -192c-8 -13 -24 -34 -24 -50c0 -39 56 -15 56 -50v-18h-190v18c0 39 26 -10 85 79l173 258l-177 268c-45 68 -72 21 -72 62v18h228v-18c0 -36 -43 -13 -43 -43c0 -13 14 -29 21 -39l113 -169l86 128c11 17 39 56 39 76c0 42 -49 7 -49 47v18h193v-18
c0 -43 -36 5 -105 -95l-136 -196l203 -309c44 -67 72 -30 72 -67v-18h-237v18c0 36 54 11 54 44c0 12 -13 27 -19 36z" />
    <glyph glyph-name="Y" unicode="Y" horiz-adv-x="660" 
d="M355 352l136 236c7 13 26 42 26 57c0 27 -51 11 -51 40v18h178v-18c0 -36 -22 15 -83 -86l-183 -301v-208c0 -83 55 -28 55 -72v-18h-214v18c0 44 56 -11 56 72v201l-190 316c-55 91 -79 39 -79 78v18h227v-18c0 -33 -47 -7 -47 -41c0 -12 15 -36 21 -45z" />
    <glyph glyph-name="Z" unicode="Z" horiz-adv-x="580" 
d="M135 45h204c198 0 103 127 180 127h18v-172h-524v43l403 615h-157c-207 0 -102 -115 -178 -115h-19v175c19 -11 46 -15 67 -15h408v-44z" />
    <glyph glyph-name="bracketleft" unicode="[" horiz-adv-x="400" 
d="M110 -204v907h196v-24c0 -55 -120 15 -120 -83v-693c0 -98 120 -28 120 -83v-24h-196z" />
    <glyph glyph-name="backslash" unicode="\" 
d="M56 703h54l354 -703h-54z" />
    <glyph glyph-name="bracketright" unicode="]" horiz-adv-x="400" 
d="M290 703v-907h-196v24c0 55 120 -15 120 83v693c0 98 -120 28 -120 83v24h196z" />
    <glyph glyph-name="asciicircum" unicode="^" 
d="M237 703h46l163 -372h-53l-133 304l-133 -304h-53z" />
    <glyph glyph-name="underscore" unicode="_" horiz-adv-x="500" 
d="M500 -143h-500v82h500v-82z" />
    <glyph glyph-name="quoteleft" unicode="&#x2018;" horiz-adv-x="260" 
d="M149 721l23 -23c-29 -34 -55 -76 -57 -121c8 1 17 3 25 3c32 0 60 -27 60 -60c0 -35 -28 -61 -63 -61c-51 0 -72 50 -72 94c0 65 39 123 84 168z" />
    <glyph glyph-name="a" unicode="a" 
d="M337 169v96c-81 -7 -195 -41 -195 -142c0 -51 29 -90 82 -90c36 0 113 24 113 136zM334 302c0 64 -13 154 -99 154c-31 0 -39 -16 -42 -43c-3 -32 -26 -54 -58 -54c-28 0 -52 19 -52 49c0 62 105 85 151 85c198 0 199 -162 199 -190v-156c0 -31 -3 -108 44 -108
c12 0 19 6 27 13l4 -6c3 -4 8 -9 8 -15c0 -20 -42 -46 -77 -46c-46 0 -77 28 -92 70c-43 -46 -80 -70 -144 -70c-83 0 -167 49 -167 140c0 135 198 167 298 177z" />
    <glyph glyph-name="b" unicode="b" horiz-adv-x="600" 
d="M190 707v-254c42 27 91 40 141 40c141 0 228 -112 228 -251s-87 -257 -235 -257c-51 0 -110 21 -151 51l-59 -51h-20v633c0 71 -53 22 -53 67v18zM190 408v-338c28 -25 69 -40 106 -40c121 0 152 116 152 215c0 100 -36 203 -152 203c-37 0 -78 -15 -106 -40z" />
    <glyph glyph-name="c" unicode="c" 
d="M452 87l31 -28c-48 -52 -106 -74 -176 -74c-152 0 -268 104 -268 259c0 143 119 249 259 249c62 0 167 -21 167 -101c0 -32 -26 -55 -58 -55c-25 0 -54 16 -54 45c0 13 5 22 5 34c0 31 -40 40 -65 40c-104 0 -143 -114 -143 -202c0 -107 55 -221 177 -221
c50 0 90 21 125 54z" />
    <glyph glyph-name="d" unicode="d" horiz-adv-x="600" 
d="M410 70v338c-28 25 -69 40 -106 40c-121 0 -152 -116 -152 -215c0 -100 36 -203 152 -203c37 0 78 15 106 40zM410 453v165c0 70 -52 22 -52 67v18l148 4v-622c0 -67 47 -25 47 -67v-18h-140v40c-40 -37 -93 -55 -144 -55c-141 0 -228 112 -228 251s87 257 235 257
c48 0 92 -18 134 -40z" />
    <glyph glyph-name="e" unicode="e" 
d="M488 255h-346c-6 -109 52 -222 174 -222c63 0 108 36 147 83l34 -26c-51 -69 -114 -105 -201 -105c-149 0 -257 110 -257 259c0 141 96 249 240 249c137 0 213 -108 209 -238zM145 303h237c5 73 -24 148 -109 148c-84 0 -122 -73 -128 -148z" />
    <glyph glyph-name="f" unicode="f" horiz-adv-x="300" 
d="M88 424h-53v18c0 17 6 19 19 23c40 12 35 21 38 62c6 83 25 191 133 191c28 0 63 -17 63 -51c0 -28 -22 -44 -46 -44c-19 0 -28 9 -35 17c-6 9 -10 17 -18 17c-10 0 -13 -14 -13 -22c4 -87 10 -119 8 -157h81v-54h-81v-334c0 -80 62 -22 62 -72v-18h-211v18
c0 45 53 -4 53 67v339z" />
    <glyph glyph-name="g" unicode="g" 
d="M152 315c0 -67 29 -139 106 -139s103 84 103 147c0 64 -27 138 -102 138c-81 0 -107 -79 -107 -146zM176 157l-41 -84c39 8 79 15 119 15c196 0 234 -95 234 -141c0 -120 -143 -159 -241 -159c-58 0 -212 18 -212 101c0 33 26 54 59 54c24 0 54 -16 54 -44
c0 -12 -6 -23 -6 -32c0 -36 88 -37 112 -37c52 0 148 22 148 88c0 78 -123 88 -179 88c-84 0 -158 -21 -169 -21c-8 0 -8 7 -6 11l87 179c-51 30 -84 79 -84 138c0 113 103 180 210 180c41 0 76 -12 112 -30c7 39 35 70 77 70c29 0 57 -17 57 -49c0 -24 -19 -41 -44 -41
c-33 0 -35 23 -44 23c-8 0 -12 -9 -12 -16c0 -22 55 -54 55 -125c0 -111 -96 -181 -203 -181c-28 0 -57 2 -83 13z" />
    <glyph glyph-name="h" unicode="h" horiz-adv-x="600" 
d="M188 389v-304c0 -70 51 -23 51 -67v-18h-200v18c0 45 53 -4 53 67v533c0 71 -53 22 -53 67v18l149 4v-266c49 32 95 52 154 52c151 0 166 -105 166 -135v-273c0 -70 52 -22 52 -67v-18h-198v18c0 44 50 -2 50 67v249c0 32 1 111 -100 111c-42 0 -98 -23 -124 -56z" />
    <glyph glyph-name="i" unicode="i" horiz-adv-x="280" 
d="M187 482v-397c0 -68 48 -24 48 -67v-18h-193v18c0 43 49 -1 49 67v308c0 68 -49 24 -49 67v18zM131 674c33 0 61 -28 61 -61s-28 -61 -61 -61s-61 28 -61 61s28 61 61 61z" />
    <glyph glyph-name="j" unicode="j" horiz-adv-x="280" 
d="M92 91v302c0 72 -55 21 -55 67v18l151 4v-454c0 -166 -58 -240 -125 -240c-31 0 -58 22 -58 56c0 25 23 45 47 45c23 0 34 -21 46 -21c13 0 17 16 17 26c0 6 -6 14 -11 40c-6 27 -12 74 -12 157zM132 674c33 0 61 -28 61 -61s-28 -61 -61 -61s-61 28 -61 61s28 61 61 61z
" />
    <glyph glyph-name="k" unicode="k" 
d="M184 252l100 95c13 11 60 53 60 70c0 33 -49 7 -49 43v18h209v-18c0 -38 -26 3 -129 -92l-85 -78l156 -203c48 -63 75 -36 75 -69v-18h-219v18c0 36 42 14 42 44c0 11 -15 27 -21 34l-100 130l-39 -36v-105c0 -68 49 -24 49 -67v-18h-194v18c0 43 49 -1 49 67v533
c0 68 -49 24 -49 67v18l145 4v-455z" />
    <glyph glyph-name="l" unicode="l" horiz-adv-x="280" 
d="M189 707v-622c0 -70 51 -23 51 -67v-18h-200v18c0 45 53 -4 53 67v533c0 71 -53 22 -53 67v18z" />
    <glyph glyph-name="m" unicode="m" horiz-adv-x="860" 
d="M39 458v20l142 4v-56c40 39 87 67 146 67c56 0 109 -19 137 -71c41 41 91 71 151 71c145 0 156 -95 156 -142v-266c0 -71 53 -22 53 -67v-18h-201v18c0 45 52 -3 52 67v247c0 14 13 113 -89 113c-36 0 -87 -32 -107 -63v-297c0 -71 53 -22 53 -67v-18h-201v18
c0 45 52 -3 52 67v247c0 14 11 113 -84 113c-40 0 -89 -32 -112 -63v-297c0 -73 56 -21 56 -67v-18h-204v18c0 45 52 -3 52 67v308c0 68 -52 25 -52 65z" />
    <glyph glyph-name="n" unicode="n" horiz-adv-x="580" 
d="M37 458v20l139 4v-50c46 42 93 61 155 61c109 0 159 -51 159 -135v-273c0 -71 53 -22 53 -67v-18h-203v18c0 45 54 -4 54 67v245c0 63 -8 115 -100 115c-38 0 -91 -25 -112 -59v-301c0 -71 54 -22 54 -67v-18h-199v18c0 43 49 -1 49 67v308c0 68 -49 25 -49 65z" />
    <glyph glyph-name="o" unicode="o" horiz-adv-x="580" 
d="M287 493c142 0 254 -105 254 -250c0 -141 -103 -258 -248 -258c-142 0 -254 105 -254 250c0 141 103 258 248 258zM288 456c-111 0 -138 -124 -138 -212c0 -94 24 -222 142 -222c113 0 138 124 138 212c0 94 -22 222 -142 222z" />
    <glyph glyph-name="p" unicode="p" horiz-adv-x="600" 
d="M190 408v-338c28 -25 69 -40 106 -40c121 0 152 116 152 215c0 100 -36 203 -152 203c-37 0 -78 -15 -106 -40zM190 25v-144c0 -74 59 -19 59 -67v-18h-209v18c0 46 54 -4 54 67v512c0 34 -12 40 -24 43c-13 3 -25 3 -25 22v20l140 4v-47c41 34 83 58 146 58
c141 0 228 -112 228 -251s-87 -257 -235 -257c-54 3 -94 15 -134 40z" />
    <glyph glyph-name="q" unicode="q" horiz-adv-x="600" 
d="M410 70v338c-28 25 -69 40 -106 40c-121 0 -152 -116 -152 -215c0 -100 36 -203 152 -203c37 0 78 15 106 40zM455 460l30 24h21v-603c0 -71 54 -22 54 -67v-18h-210v18c0 48 60 -7 60 67v143c-44 -23 -83 -39 -141 -39c-141 0 -228 112 -228 251s87 257 235 257
c87 0 132 -50 148 -50c12 0 23 10 31 17z" />
    <glyph glyph-name="r" unicode="r" horiz-adv-x="420" 
d="M193 482v-151h2c15 62 62 162 137 162c35 0 65 -20 65 -57c0 -31 -28 -51 -58 -51c-26 0 -41 14 -53 14c-52 0 -94 -154 -94 -221v-93c0 -78 61 -16 61 -67v-18h-214v18c0 50 58 -9 58 67v308c0 76 -58 17 -58 67v18z" />
    <glyph glyph-name="s" unicode="s" horiz-adv-x="480" 
d="M217 -15c-54 0 -186 21 -186 96c0 32 28 53 59 53c25 0 59 -16 59 -45c0 -8 -5 -18 -5 -26c0 -34 46 -36 70 -36c50 0 113 24 113 81c0 126 -273 70 -273 239c0 99 113 146 198 146c50 0 147 -17 147 -84c0 -32 -28 -49 -57 -49c-25 0 -56 14 -56 44c0 7 2 14 2 21
c0 23 -35 26 -52 26c-39 0 -91 -25 -91 -70c0 -118 278 -66 278 -238c0 -107 -112 -158 -206 -158z" />
    <glyph glyph-name="t" unicode="t" horiz-adv-x="360" 
d="M20 424v23c0 43 70 4 70 76v66c0 26 10 29 32 30l64 4v-145h118v-54h-118v-297c0 -47 10 -88 66 -88c23 0 34 3 54 14l7 4l19 -31c-30 -25 -82 -41 -122 -41c-99 0 -120 68 -120 118v321h-70z" />
    <glyph glyph-name="u" unicode="u" horiz-adv-x="580" 
d="M399 91v302c0 71 -54 22 -54 67v18l150 4v-397c0 -68 52 -25 52 -65v-20h-146v44c-39 -35 -101 -59 -155 -59c-101 0 -161 59 -161 156v252c0 70 -52 22 -52 67v18l148 4v-339c0 -35 2 -104 105 -104c48 0 78 24 113 52z" />
    <glyph glyph-name="v" unicode="v" horiz-adv-x="540" 
d="M295 110l83 195c10 22 33 75 33 98c0 41 -56 19 -56 57v18h190v-18c0 -46 -35 16 -81 -91l-164 -376h-55l-172 386c-42 95 -73 34 -73 81v18h231v-18c0 -38 -56 -18 -56 -52c0 -12 9 -29 13 -39z" />
    <glyph glyph-name="w" unicode="w" horiz-adv-x="760" 
d="M377 313l-115 -320h-56l-141 394c-29 81 -58 33 -58 73v18h202v-18c0 -38 -50 -14 -50 -49c0 -11 10 -40 14 -51l83 -234l124 352h39l121 -349l77 220c6 16 12 33 12 50c0 53 -55 21 -55 61v18h174v-18c0 -42 -34 8 -64 -76l-141 -391h-54z" />
    <glyph glyph-name="x" unicode="x" 
d="M283 297l65 77c8 10 25 28 25 42c0 31 -52 6 -52 44v18h187v-18c0 -36 -19 2 -94 -81l-104 -115l142 -189c40 -53 67 -20 67 -57v-18h-232v18c0 36 53 19 53 45c0 15 -18 39 -27 51l-62 83l-61 -73c-12 -14 -38 -42 -38 -62c0 -27 45 -9 45 -44v-18h-188v18
c0 40 28 -4 99 78l117 135l-115 145c-74 93 -93 46 -93 84v18h225v-18c0 -37 -48 -16 -48 -38c0 -9 15 -26 20 -33z" />
    <glyph glyph-name="y" unicode="y" horiz-adv-x="540" 
d="M306 124l80 189c8 20 29 73 29 94c0 43 -52 15 -52 53v18h180v-18c0 -42 -30 10 -68 -77l-186 -428c-38 -87 -84 -167 -190 -167c-33 0 -80 19 -80 60c0 33 26 52 57 52c67 0 39 -50 67 -50c50 0 94 110 111 150l-177 383c-41 89 -75 33 -75 77v18h228v-18
c0 -39 -56 -14 -56 -44c0 -11 11 -33 16 -43z" />
    <glyph glyph-name="z" unicode="z" horiz-adv-x="480" 
d="M431 478v-50l-278 -383h128c145 0 78 78 132 78h18v-123h-396v43l288 390h-95c-173 0 -92 -78 -148 -78h-18v123h369z" />
    <glyph glyph-name="braceleft" unicode="{" horiz-adv-x="400" 
d="M248 572v-177c0 -77 -10 -125 -81 -145v-1c71 -20 81 -68 81 -145v-178c0 -71 18 -96 83 -96v-34c-102 0 -155 21 -155 145v184c0 65 -10 108 -76 108v33c66 0 76 43 76 108v184c0 124 53 145 155 145v-34c-65 0 -83 -25 -83 -97z" />
    <glyph glyph-name="bar" unicode="|" 
d="M236 0v703h48v-703h-48z" />
    <glyph glyph-name="braceright" unicode="}" horiz-adv-x="400" 
d="M152 -73v177c0 77 10 125 81 145v1c-71 20 -81 68 -81 145v178c0 71 -18 96 -83 96v34c102 0 155 -21 155 -145v-184c0 -65 10 -108 76 -108v-33c-66 0 -76 -43 -76 -108v-184c0 -124 -53 -145 -155 -145v34c65 0 83 25 83 97z" />
    <glyph glyph-name="asciitilde" unicode="~" 
d="M100 177l-26 30c23 42 54 88 106 88c29 0 57 -13 85 -26c27 -14 55 -32 81 -32c33 0 60 36 74 64l26 -30c-23 -42 -54 -88 -106 -88c-29 0 -57 13 -85 27c-27 13 -55 30 -81 31c-33 -1 -60 -36 -74 -64z" />
    <glyph glyph-name="exclamdown" unicode="&#xa1;" horiz-adv-x="220" 
d="M90 279h40c0 -109 38 -421 38 -438c0 -40 -10 -91 -58 -91s-58 51 -58 91c0 17 38 329 38 438zM171 433c0 -34 -27 -62 -61 -62s-61 28 -61 62c0 33 28 60 61 60s61 -27 61 -60z" />
    <glyph glyph-name="cent" unicode="&#xa2;" 
d="M257 560v60h46v-58c40 -2 122 -19 122 -78c0 -26 -20 -44 -46 -44c-20 0 -43 13 -43 35c0 9 4 16 4 25c0 20 -19 30 -37 30v-331h17c47 0 68 18 97 43l24 -21c-35 -43 -84 -58 -138 -64v-80h-46v83c-103 20 -173 98 -173 202c0 101 72 185 173 198zM257 212v314
c-63 -15 -82 -101 -82 -155c0 -62 22 -129 82 -159z" />
    <glyph glyph-name="sterling" unicode="&#xa3;" 
d="M469 79l32 -16c-20 -44 -53 -78 -104 -78c-39 0 -73 16 -103 39c-42 -26 -90 -39 -139 -39c-50 0 -143 20 -143 84c0 55 70 76 114 76c58 0 109 -30 155 -63c20 25 34 63 34 94c0 44 -36 79 -64 104h-182v45h129c-69 57 -129 124 -129 215c0 110 95 178 198 178
c64 0 160 -35 160 -113c0 -34 -23 -58 -57 -58c-27 0 -53 20 -53 49c0 27 22 33 22 48c0 28 -49 37 -75 37c-68 0 -109 -48 -109 -127c0 -67 138 -229 270 -229h63v-45h-109c12 -25 22 -48 22 -79c0 -62 -28 -107 -69 -151c19 -13 41 -23 65 -23c33 0 56 26 72 52zM245 51
c-33 22 -71 47 -112 47c-17 0 -45 -12 -45 -33c0 -30 56 -38 78 -38c30 0 54 6 79 24z" />
    <glyph glyph-name="fraction" unicode="&#x2044;" horiz-adv-x="80" 
d="M273 703h53l-517 -703h-55z" />
    <glyph glyph-name="yen" unicode="&#xa5;" 
d="M285 357l113 234c6 13 18 35 18 49c0 32 -46 13 -46 45v18h166v-18c0 -41 -27 11 -68 -71l-97 -195h135v-42h-155l-31 -61h186v-42h-198v-184c0 -81 53 -29 53 -72v-18h-205v18c0 43 56 -9 56 72v184h-199v42h184l-30 61h-154v42h133l-100 207c-32 65 -60 28 -60 59v18
h212v-18c0 -32 -42 -12 -42 -41c0 -14 22 -60 29 -76z" />
    <glyph glyph-name="florin" unicode="&#x192;" 
d="M455 540l3 -48h-110l-80 -388c-21 -104 -68 -242 -163 -242c-47 0 -93 29 -93 79c0 28 18 50 47 50c20 0 40 -12 40 -33c0 -16 -7 -31 -7 -42c0 -10 7 -17 16 -17c12 0 42 2 72 168l76 425h-55v18c0 49 48 -3 80 91c23 67 61 174 147 174c38 0 73 -18 73 -60
c0 -26 -17 -48 -45 -48c-58 0 -22 66 -52 66c-16 0 -17 -22 -19 -33l-28 -160h98z" />
    <glyph glyph-name="section" unicode="&#xa7;" 
d="M150 398c-25 -25 -44 -56 -44 -93c0 -95 154 -85 277 -148c23 25 41 54 41 90c0 109 -156 83 -274 151zM419 127c35 -37 49 -74 49 -125c0 -135 -116 -223 -244 -223c-86 0 -207 51 -207 153c0 38 22 71 63 71c28 0 45 -17 45 -45c0 -40 -33 -49 -33 -74
c0 -48 86 -68 122 -68c89 0 173 54 173 151c0 202 -367 92 -367 307c0 69 39 116 90 155c-29 27 -44 67 -44 106c0 118 100 186 210 186c61 0 169 -24 169 -103c0 -29 -18 -54 -48 -54c-25 0 -46 14 -46 41c0 16 8 28 8 41c0 33 -65 38 -87 38c-67 0 -130 -46 -130 -117
c0 -164 363 -68 363 -285c0 -63 -37 -120 -86 -155z" />
    <glyph glyph-name="currency" unicode="&#xa4;" 
d="M44 179l45 46c-29 34 -43 81 -43 126s14 92 43 126l-45 46l45 44l45 -45c34 29 81 43 126 43c46 0 92 -14 126 -43l46 45l44 -44l-45 -46c29 -34 43 -81 43 -126s-14 -92 -43 -126l45 -46l-44 -44l-46 45c-34 -29 -80 -43 -126 -43c-45 0 -92 14 -126 43l-45 -45z
M260 495c-80 0 -144 -64 -144 -144s64 -144 144 -144s144 64 144 144s-64 144 -144 144z" />
    <glyph glyph-name="quotesingle" unicode="'" horiz-adv-x="204" 
d="M112 481h-20l-33 196c-4 21 19 44 43 44s47 -23 43 -44z" />
    <glyph glyph-name="quotedblleft" unicode="&#x201c;" horiz-adv-x="420" 
d="M319 721l23 -23c-29 -34 -55 -76 -57 -121c8 1 17 3 25 3c32 0 60 -27 60 -60c0 -35 -28 -61 -63 -61c-51 0 -72 50 -72 94c0 65 39 123 84 168zM139 721l23 -23c-29 -34 -55 -76 -57 -121c8 1 17 3 25 3c32 0 60 -27 60 -60c0 -35 -28 -61 -63 -61c-51 0 -72 50 -72 94
c0 65 39 123 84 168z" />
    <glyph glyph-name="guillemotleft" unicode="&#xab;" horiz-adv-x="400" 
d="M274 239l59 -169l-28 -15l-106 184l113 184l25 -15zM124 239l59 -169l-28 -15l-106 184l113 184l25 -15z" />
    <glyph glyph-name="guilsinglleft" unicode="&#x2039;" horiz-adv-x="260" 
d="M129 239l59 -169l-28 -15l-106 184l113 184l25 -15z" />
    <glyph glyph-name="guilsinglright" unicode="&#x203a;" horiz-adv-x="260" 
d="M131 239l-59 169l28 15l106 -184l-113 -184l-25 15z" />
    <glyph glyph-name="fi" unicode="&#xfb01;" horiz-adv-x="560" 
d="M38 424v18c0 51 49 -18 56 88c8 124 71 188 193 188c44 0 161 -19 161 -79c0 -26 -21 -44 -46 -44c-61 0 -20 76 -118 76c-100 0 -98 -84 -98 -121v-72h278v-393c0 -68 49 -24 49 -67v-18h-193v18c0 41 48 1 48 67v282c-2 50 4 56 -50 57h-132v-339c0 -78 61 -16 61 -67
v-18h-209v18c0 45 52 -4 52 67v339h-52z" />
    <glyph glyph-name="fl" unicode="&#xfb02;" horiz-adv-x="560" 
d="M39 424v18c0 50 57 -13 57 90c0 107 63 186 171 186c36 0 63 -9 93 -25l106 22v-630c0 -68 49 -24 49 -67v-18h-197v18c0 45 52 -4 52 67v484c0 51 -23 102 -87 102c-89 0 -95 -72 -95 -130v-63h81v-54h-81v-339c0 -78 60 -16 60 -67v-18h-209v18c0 46 53 -5 53 67v339
h-53z" />
    <glyph glyph-name="endash" unicode="&#x2013;" horiz-adv-x="500" 
d="M0 280h500v-82h-500v82z" />
    <glyph glyph-name="dagger" unicode="&#x2020;" 
d="M237 -204l-29 584c-2 36 8 57 19 72s22 25 22 38c0 8 -4 16 -13 16c-37 0 -87 -46 -130 -46c-27 0 -52 23 -52 52s22 52 53 52c43 0 94 -41 123 -41c9 0 19 2 19 14c0 35 -43 70 -43 120c0 30 18 61 54 61c30 0 54 -31 54 -61c0 -50 -43 -85 -43 -120
c0 -12 12 -14 20 -14c28 0 81 41 124 41c29 0 51 -23 51 -52s-24 -52 -52 -52c-49 0 -93 46 -130 46c-9 0 -13 -8 -13 -16c0 -13 11 -23 22 -38s21 -36 19 -72l-29 -584h-46z" />
    <glyph glyph-name="daggerdbl" unicode="&#x2021;" 
d="M305 73l-21 -277h-48l-21 277c-1 30 7 46 16 58s18 21 18 36c0 8 -6 15 -15 15c-32 0 -84 -46 -129 -46c-28 0 -51 26 -51 54s25 49 51 49c43 0 88 -40 127 -40c8 0 17 4 17 13c0 17 -9 27 -19 41c-29 38 -22 81 -23 127c-1 36 10 57 20 72c11 15 22 25 22 38
c0 11 -7 15 -18 15c-30 0 -80 -45 -126 -45c-33 0 -51 23 -51 52s23 52 51 52c43 0 93 -41 126 -41c10 0 18 4 18 15c0 32 -43 70 -43 120c0 31 23 60 54 60s54 -29 54 -60c0 -50 -43 -88 -43 -120c0 -11 8 -15 18 -15c33 0 83 41 126 41c28 0 51 -23 51 -52
s-18 -52 -51 -52c-46 0 -96 45 -126 45c-11 0 -18 -4 -18 -15c0 -13 11 -23 22 -38s21 -36 20 -72c-2 -46 6 -89 -23 -127c-9 -14 -19 -24 -19 -41c0 -9 9 -13 17 -13c39 0 84 40 127 40c26 0 51 -21 51 -49s-23 -54 -51 -54c-45 0 -97 46 -129 46c-9 0 -15 -7 -15 -15
c0 -15 9 -24 18 -36s18 -28 16 -58z" />
    <glyph glyph-name="periodcentered" unicode="&#xb7;" horiz-adv-x="260" 
d="M191 239c0 -33 -28 -61 -61 -61s-61 28 -61 61s28 61 61 61s61 -28 61 -61z" />
    <glyph glyph-name="paragraph" unicode="&#xb6;" 
d="M416 618v-699c0 -76 55 -18 55 -67v-18h-304v18c0 55 66 -11 66 67v385h-31c-99 0 -167 67 -167 202c0 171 97 197 167 197h269v-18c0 -49 -55 9 -55 -67zM361 661h-73v-785h73v785zM151 538v-72c0 -62 11 -129 70 -129h12v324c-71 0 -82 -45 -82 -123z" />
    <glyph glyph-name="bullet" unicode="&#x2022;" 
d="M436 351c0 -97 -80 -176 -176 -176c-97 0 -176 79 -176 176s79 176 176 176c96 0 176 -79 176 -176z" />
    <glyph glyph-name="quotesinglbase" unicode="&#x201a;" horiz-adv-x="260" 
d="M101 -155l-23 23c29 34 55 76 57 121c-8 -1 -17 -3 -25 -3c-32 0 -60 27 -60 60c0 35 28 61 63 61c51 0 72 -50 72 -94c0 -65 -39 -123 -84 -168z" />
    <glyph glyph-name="quotedblbase" unicode="&#x201e;" horiz-adv-x="420" 
d="M101 -155l-23 23c29 34 55 76 57 121c-8 -1 -17 -3 -25 -3c-32 0 -60 27 -60 60c0 35 28 61 63 61c51 0 72 -50 72 -94c0 -65 -39 -123 -84 -168zM281 -155l-23 23c29 34 55 76 57 121c-8 -1 -17 -3 -25 -3c-32 0 -60 27 -60 60c0 35 28 61 63 61c51 0 72 -50 72 -94
c0 -65 -39 -123 -84 -168z" />
    <glyph glyph-name="quotedblright" unicode="&#x201d;" horiz-adv-x="420" 
d="M101 459l-23 23c29 34 55 76 57 121c-8 -1 -17 -3 -25 -3c-32 0 -60 27 -60 60c0 35 28 61 63 61c51 0 72 -50 72 -94c0 -65 -39 -123 -84 -168zM281 459l-23 23c29 34 55 76 57 121c-8 -1 -17 -3 -25 -3c-32 0 -60 27 -60 60c0 35 28 61 63 61c51 0 72 -50 72 -94
c0 -65 -39 -123 -84 -168z" />
    <glyph glyph-name="guillemotright" unicode="&#xbb;" horiz-adv-x="400" 
d="M126 239l-59 169l28 15l106 -184l-113 -184l-25 15zM276 239l-59 169l28 15l106 -184l-113 -184l-25 15z" />
    <glyph glyph-name="ellipsis" unicode="&#x2026;" horiz-adv-x="1000" 
d="M228 46c0 -33 -28 -61 -61 -61s-61 28 -61 61s28 61 61 61s61 -28 61 -61zM894 46c0 -33 -28 -61 -61 -61s-61 28 -61 61s28 61 61 61s61 -28 61 -61zM561 46c0 -33 -28 -61 -61 -61s-61 28 -61 61s28 61 61 61s61 -28 61 -61z" />
    <glyph glyph-name="perthousand" unicode="&#x2030;" horiz-adv-x="1120" 
d="M199 718c92 0 161 -73 161 -163s-65 -163 -161 -163c-93 0 -161 73 -161 163s68 163 161 163zM199 696c-74 0 -90 -81 -90 -141s16 -141 90 -141s90 81 90 141s-16 141 -90 141zM593 703h53l-517 -703h-55zM521 311c92 0 161 -73 161 -163s-65 -163 -161 -163
c-93 0 -161 73 -161 163s68 163 161 163zM521 289c-74 0 -90 -81 -90 -141s16 -141 90 -141s90 81 90 141s-16 141 -90 141zM912 311c92 0 161 -73 161 -163s-65 -163 -161 -163c-93 0 -161 73 -161 163s68 163 161 163zM912 289c-74 0 -90 -81 -90 -141s16 -141 90 -141
s90 81 90 141s-16 141 -90 141z" />
    <glyph glyph-name="questiondown" unicode="&#xbf;" horiz-adv-x="440" 
d="M230 291h38v-55c0 -129 -118 -158 -118 -302c0 -62 34 -136 105 -136c24 0 70 12 70 41c0 20 -40 12 -40 58c0 31 25 55 56 55c39 0 62 -30 62 -67c0 -86 -96 -125 -169 -125c-96 0 -192 63 -192 166c0 150 188 164 188 329v36zM307 433c0 -34 -27 -62 -61 -62
s-61 28 -61 62c0 33 28 60 61 60s61 -27 61 -60z" />
    <glyph glyph-name="grave" unicode="`" horiz-adv-x="360" 
d="M230 535l-130 57l-22 10c-25 12 -53 25 -53 56c0 25 18 45 43 45s51 -23 69 -38l117 -92z" />
    <glyph glyph-name="acute" unicode="&#xb4;" horiz-adv-x="360" 
d="M110 535l-24 38l117 92c18 15 44 38 69 38s43 -20 43 -44c0 -32 -28 -44 -53 -57l-22 -10z" />
    <glyph glyph-name="circumflex" unicode="&#x2c6;" 
d="M450 604l-16 -34l-120 38c-17 5 -36 11 -54 11s-37 -6 -54 -11l-120 -38l-16 34l102 56c31 17 59 33 88 33s57 -16 88 -33z" />
    <glyph glyph-name="tilde" unicode="&#x2dc;" horiz-adv-x="440" 
d="M81 570l-4 6c-4 7 -9 12 -9 20c0 35 70 66 99 66c22 0 45 -9 67 -17c21 -9 42 -18 58 -18c23 0 46 13 64 26l5 -6c4 -5 11 -12 11 -19c0 -29 -68 -70 -106 -70c-20 0 -41 9 -61 18c-20 8 -39 17 -56 17c-21 0 -50 -14 -68 -23z" />
    <glyph glyph-name="macron" unicode="&#xaf;" horiz-adv-x="440" 
d="M66 637h308v-65h-308v65z" />
    <glyph glyph-name="breve" unicode="&#x2d8;" horiz-adv-x="440" 
d="M334 700h36c-6 -80 -68 -142 -150 -142s-144 62 -150 142h36c17 -46 67 -69 114 -69s97 19 114 69z" />
    <glyph glyph-name="dotaccent" unicode="&#x2d9;" horiz-adv-x="260" 
d="M130 692c33 0 61 -28 61 -61s-28 -61 -61 -61s-61 28 -61 61s28 61 61 61z" />
    <glyph glyph-name="dieresis" unicode="&#xa8;" horiz-adv-x="440" 
d="M123 692c33 0 61 -28 61 -61s-28 -61 -61 -61s-61 28 -61 61s28 61 61 61zM297 692c33 0 61 -28 61 -61s-28 -61 -61 -61s-61 28 -61 61s28 61 61 61z" />
    <glyph glyph-name="ring" unicode="&#x2da;" horiz-adv-x="320" 
d="M150 736c51 0 93 -42 93 -93s-42 -93 -93 -93s-93 42 -93 93s42 93 93 93zM150 690c-26 0 -47 -21 -47 -47s21 -47 47 -47s47 21 47 47s-21 47 -47 47z" />
    <glyph glyph-name="cedilla" unicode="&#xb8;" horiz-adv-x="340" 
d="M192 0l-35 -58c8 0 16 1 24 1c45 0 94 -23 94 -75c0 -56 -66 -82 -113 -82c-16 0 -92 12 -92 35c0 7 12 22 14 28c22 -12 48 -25 74 -25c22 0 53 13 53 39c0 30 -28 45 -55 45c-15 0 -28 -5 -42 -11l-21 22l52 81h47z" />
    <glyph glyph-name="hungarumlaut" unicode="&#x2dd;" horiz-adv-x="480" 
d="M104 505l-36 27l79 127c15 25 33 62 67 62c24 0 45 -21 45 -45c0 -27 -34 -56 -52 -73zM258 505l-35 27l78 127c16 25 33 62 68 62c24 0 44 -21 44 -45c0 -27 -34 -56 -52 -73z" />
    <glyph glyph-name="ogonek" unicode="&#x2db;" horiz-adv-x="300" 
d="M221 -101v-23c0 -12 -4 -32 -60 -32c-43 0 -92 24 -92 72c0 45 31 59 60 84h101v-2c-30 -11 -95 -26 -95 -68c0 -27 24 -41 48 -41c14 0 25 5 38 10z" />
    <glyph glyph-name="caron" unicode="&#x2c7;" 
d="M424 693l16 -34l-102 -56c-31 -17 -59 -33 -88 -33s-57 16 -88 33l-102 56l16 34l120 -38c17 -5 36 -11 54 -11s37 6 54 11z" />
    <glyph glyph-name="emdash" unicode="&#x2014;" horiz-adv-x="1000" 
d="M0 280h1000v-82h-1000v82z" />
    <glyph glyph-name="AE" unicode="&#xc6;" horiz-adv-x="960" 
d="M290 385h171v251c0 4 2 22 -6 22c-6 0 -8 -2 -10 -6zM406 0v18c0 43 55 -16 55 77v245h-199l-119 -215c-8 -15 -22 -40 -22 -56c0 -44 52 -11 52 -51v-18h-184v18c0 42 21 -16 85 92l281 477c8 14 21 34 21 49c0 38 -56 19 -56 47v20h503c21 0 48 4 67 15v-167h-19
c-69 0 -5 107 -149 107h-158v-273h91c82 0 46 71 90 71h24v-184h-24c-57 0 -5 68 -90 68h-91v-295h182c190 0 96 138 172 138h18v-183h-530z" />
    <glyph glyph-name="ordfeminine" unicode="&#xaa;" horiz-adv-x="312" 
d="M23 343v45h270v-45h-270zM209 527v57c-53 -4 -127 -24 -127 -85c0 -31 19 -55 54 -55c23 0 73 15 73 83zM271 607v-94c0 -18 -2 -64 29 -64c8 0 12 3 18 7c2 -3 7 -9 7 -12c0 -12 -27 -28 -50 -28c-30 0 -50 17 -60 42c-27 -27 -52 -42 -93 -42c-54 0 -109 30 -109 84
c0 81 129 100 194 106c0 39 -8 93 -64 93c-20 0 -26 -10 -28 -26c-2 -19 -17 -32 -37 -32c-19 0 -34 11 -34 29c0 37 68 51 98 51c129 0 129 -97 129 -114z" />
    <glyph glyph-name="Lslash" unicode="&#x141;" horiz-adv-x="560" 
d="M36 0v18c0 44 55 -11 55 72v214l-52 -42v56l52 42v253c0 83 -54 28 -54 72v18h212v-18c0 -44 -55 11 -55 -72v-193l130 98v-54l-130 -100v-319h162c166 0 100 132 161 132h23v-177h-504z" />
    <glyph glyph-name="Oslash" unicode="&#xd8;" horiz-adv-x="740" 
d="M192 35l-86 -125h-52l104 153c-80 75 -114 195 -114 289c0 190 130 369 332 369c66 0 133 -21 188 -64l68 100h53l-89 -130c66 -67 100 -177 100 -276c0 -190 -130 -369 -332 -369c-61 0 -121 19 -172 53zM547 555l-321 -470c34 -43 80 -66 141 -66
c178 0 213 188 213 329c0 98 -8 142 -33 207zM201 125l323 474c-20 49 -86 85 -151 85c-178 0 -213 -188 -213 -329c0 -67 10 -164 41 -230z" />
    <glyph glyph-name="OE" unicode="&#x152;" horiz-adv-x="1000" 
d="M924 718v-171h-19c-67 0 -13 111 -144 111h-163v-270h77c117 0 47 68 110 68h18v-185h-23c-56 0 -5 72 -105 72h-77v-298h181c179 0 98 138 172 138h18v-183h-468c-50 0 -81 -5 -126 -5c-198 0 -329 176 -329 363c0 184 135 350 326 350c45 0 76 -5 126 -5h359
c21 0 48 4 67 15zM495 98v504c0 64 -65 67 -103 67c-188 0 -230 -159 -230 -320c0 -151 42 -315 221 -315c79 0 112 13 112 64z" />
    <glyph glyph-name="ordmasculine" unicode="&#xba;" horiz-adv-x="348" 
d="M29 343v45h290v-45h-290zM174 721c92 0 163 -63 163 -150c0 -85 -65 -155 -159 -155c-93 0 -167 63 -167 150c0 85 68 155 163 155zM174 699c-73 0 -91 -75 -91 -128c0 -56 16 -133 93 -133c73 0 89 75 89 127c0 57 -14 134 -91 134z" />
    <glyph glyph-name="ae" unicode="&#xe6;" horiz-adv-x="800" 
d="M439 303h224c4 74 -23 148 -105 148c-77 0 -115 -77 -119 -148zM346 166v85h-32c-65 0 -172 -36 -172 -131c0 -53 29 -93 84 -93c101 0 120 95 120 139zM764 255h-327v-21c0 -102 56 -201 165 -201c64 0 100 35 144 77l28 -22c-51 -72 -105 -103 -193 -103
c-75 0 -141 26 -182 93c-43 -65 -113 -93 -189 -93c-83 0 -169 43 -169 139c0 137 199 172 303 175c2 74 -22 152 -109 152c-77 0 -12 -95 -100 -95c-25 0 -48 17 -48 44c0 71 94 93 149 93c64 0 141 -23 165 -89c26 66 103 89 167 89c129 0 201 -116 196 -238z" />
    <glyph glyph-name="dotlessi" unicode="&#x131;" horiz-adv-x="280" 
d="M187 482v-397c0 -68 48 -24 48 -67v-18h-193v18c0 43 49 -1 49 67v308c0 68 -49 24 -49 67v18z" />
    <glyph glyph-name="lslash" unicode="&#x142;" horiz-adv-x="320" 
d="M205 707v-250l77 56v-63l-77 -60v-305c0 -70 51 -23 51 -67v-18h-200v18c0 45 53 -4 53 67v248l-74 -55v63l74 58v219c0 71 -53 22 -53 67v18z" />
    <glyph glyph-name="oslash" unicode="&#xf8;" horiz-adv-x="580" 
d="M163 17l-72 -97h-47l89 119c-66 52 -94 123 -94 196c0 141 103 258 248 258c54 0 103 -15 147 -44l56 76h46l-73 -100c53 -47 78 -113 78 -182c0 -141 -103 -258 -248 -258c-44 0 -89 11 -130 32zM413 358l-215 -293c19 -30 58 -43 95 -43c112 0 137 124 137 212
c0 46 -4 90 -17 124zM177 99l219 297c-25 41 -60 60 -107 60c-112 0 -139 -124 -139 -212c0 -49 6 -105 27 -145z" />
    <glyph glyph-name="oe" unicode="&#x153;" horiz-adv-x="880" 
d="M279 22c113 0 128 130 128 217s-18 217 -130 217c-107 0 -129 -125 -129 -208c0 -85 18 -226 131 -226zM834 255h-331v-19c0 -100 59 -204 169 -204c62 0 104 39 142 83l31 -24c-52 -67 -104 -106 -192 -106c-83 0 -147 31 -195 99c-42 -65 -103 -99 -182 -99
c-141 0 -234 118 -234 253c0 134 93 255 234 255c75 0 138 -30 182 -92c41 59 103 92 176 92c137 0 202 -109 200 -238zM506 303h227c2 73 -24 148 -107 148c-78 0 -114 -79 -120 -148z" />
    <glyph glyph-name="germandbls" unicode="&#xdf;" horiz-adv-x="660" 
d="M104 437h-65v18c0 55 63 -23 76 99c11 107 107 164 214 164c91 0 201 -38 201 -146c0 -129 -167 -108 -167 -187c0 -87 248 -70 248 -241c0 -96 -101 -159 -188 -159c-56 0 -147 28 -147 98c0 31 23 57 55 57c26 0 49 -20 49 -46c0 -18 -6 -23 -6 -35
c0 -32 38 -42 63 -42c50 0 93 42 93 94c0 141 -243 110 -243 254c0 109 152 61 152 193c0 72 -52 123 -124 123c-35 0 -115 -23 -115 -96v-500c0 -68 50 -24 50 -67v-18h-201v18c0 48 55 -7 55 67v352z" />
    <glyph glyph-name="onesuperior" unicode="&#xb9;" horiz-adv-x="312" 
d="M61 672l94 37h38v-358c0 -26 14 -32 29 -34c14 -2 28 -4 28 -12v-18h-176v18c0 8 14 10 28 12s28 8 28 34v304h-69v17z" />
    <glyph glyph-name="logicalnot" unicode="&#xac;" 
d="M393 130v164h-320v54h374v-218h-54z" />
    <glyph glyph-name="mu" unicode="&#x3bc;" horiz-adv-x="580" 
d="M399 91v302c0 71 -54 22 -54 67v18l150 4v-397c0 -70 52 -22 52 -67v-18h-146v44c-39 -35 -101 -59 -155 -59c-23 0 -58 1 -72 13c6 -68 17 -136 17 -157c0 -40 -10 -91 -58 -91s-58 51 -58 91c0 13 11 141 23 226c-14 32 -13 63 -13 74v252c0 70 -52 22 -52 67v18l148 4
v-339c0 -33 1 -104 105 -104c48 0 78 26 113 52z" />
    <glyph glyph-name="trademark" unicode="&#x2122;" horiz-adv-x="1000" 
d="M316 299h-190v23h22c36 0 41 14 41 38v315h-45c-55 0 -73 -16 -73 -71h-26v99h352v-99h-26c0 55 -18 71 -73 71h-45v-315c0 -24 5 -38 41 -38h22v-23zM583 703l124 -293l125 293h123v-21h-21c-30 0 -28 -12 -28 -38v-284c0 -24 5 -38 41 -38h8v-23h-165v23h11
c36 0 41 14 41 38v297h-2l-147 -358h-9l-150 358h-2v-297c0 -24 5 -38 41 -38h9v-23h-127v23h8c36 0 41 14 41 38v284c0 26 2 38 -28 38h-13v21h120z" />
    <glyph glyph-name="Eth" unicode="&#xd0;" horiz-adv-x="680" 
d="M358 389v-51h-167v-296h98c171 0 246 114 246 316c0 153 -57 303 -229 303h-115v-272h167zM88 338h-101v51h101v224c0 83 -56 28 -56 72v18h290c198 0 324 -144 324 -342c0 -229 -162 -361 -320 -361h-293v18c0 44 55 -11 55 72v248z" />
    <glyph glyph-name="onehalf" unicode="&#xbd;" horiz-adv-x="780" 
d="M623 703h53l-517 -703h-55zM61 666l94 37h38v-358c0 -26 14 -32 29 -34c14 -2 28 -4 28 -12v-18h-176v18c0 8 14 10 28 12s28 8 28 34v304h-69v17zM736 94l-3 -94h-266v37c110 143 202 189 202 284c0 46 -24 88 -78 88c-34 0 -62 -21 -62 -42c0 -19 22 -17 22 -41
c0 -18 -15 -30 -34 -30c-27 0 -42 22 -42 44c0 59 74 91 127 91c77 0 139 -40 139 -116c0 -104 -133 -141 -227 -261h133c77 0 47 40 73 40h16z" />
    <glyph glyph-name="plusminus" unicode="&#xb1;" 
d="M233 290v137h54v-137h160v-54h-160v-137h-54v137h-160v54h160zM73 0v54h374v-54h-374z" />
    <glyph glyph-name="Thorn" unicode="&#xde;" horiz-adv-x="600" 
d="M196 211h98c91 0 156 36 156 145c0 101 -72 144 -125 144h-129v-289zM318 169h-122v-79c0 -83 55 -28 55 -72v-18h-214v18c0 44 56 -11 56 72v523c0 83 -57 28 -57 72v18h215v-18c0 -44 -55 11 -55 -72v-71h156c92 0 209 -47 209 -180c0 -144 -127 -193 -243 -193z" />
    <glyph glyph-name="onequarter" unicode="&#xbc;" horiz-adv-x="780" 
d="M623 703h53l-517 -703h-55zM61 666l94 37h38v-358c0 -26 14 -32 29 -34c14 -2 28 -4 28 -12v-18h-176v18c0 8 14 10 28 12s28 8 28 34v304h-69v17zM739 145v-27h-60v-67c0 -38 37 -16 37 -35v-16h-140v16c0 19 40 -3 40 35v67h-181v27l205 286h39v-286h60zM616 145v199
l-143 -199h143z" />
    <glyph glyph-name="divide" unicode="&#xf7;" 
d="M73 212v54h374v-54h-374zM314 371c0 -29 -25 -54 -54 -54s-54 25 -54 54s25 54 54 54s54 -25 54 -54zM314 107c0 -29 -25 -54 -54 -54s-54 25 -54 54s25 54 54 54s54 -25 54 -54z" />
    <glyph glyph-name="brokenbar" unicode="&#xa6;" 
d="M236 0v234h48v-234h-48zM236 469v234h48v-234h-48z" />
    <glyph glyph-name="degree" unicode="&#xb0;" horiz-adv-x="400" 
d="M322 596c0 -67 -55 -122 -122 -122s-122 55 -122 122c-1 67 55 122 122 122s122 -55 122 -122zM289 596c0 49 -40 89 -89 89s-90 -40 -89 -89c0 -49 40 -89 89 -89s89 40 89 89z" />
    <glyph glyph-name="thorn" unicode="&#xfe;" horiz-adv-x="600" 
d="M190 408v-338c28 -25 69 -40 106 -40c121 0 152 116 152 215c0 100 -36 203 -152 203c-37 0 -78 -15 -106 -40zM190 707v-254c36 25 78 40 141 40c141 0 228 -112 228 -251s-87 -257 -235 -257c-54 3 -94 15 -134 40v-144c0 -74 59 -19 59 -67v-18h-209v18
c0 46 54 -4 54 67v737c0 68 -53 24 -53 67v18z" />
    <glyph glyph-name="threequarters" unicode="&#xbe;" horiz-adv-x="780" 
d="M739 145v-27h-60v-67c0 -38 37 -16 37 -35v-16h-140v16c0 19 40 -3 40 35v67h-181v27l205 286h39v-286h60zM616 145v199l-143 -199h143zM633 703h53l-517 -703h-55zM104 497v22h22c7 0 86 6 86 86c0 44 -25 85 -78 85c-17 0 -50 -8 -50 -29c0 -12 15 -19 15 -34
c0 -18 -20 -30 -38 -30c-22 0 -40 20 -40 40c0 53 75 75 123 75c68 0 137 -35 137 -105c0 -62 -57 -96 -119 -98v-2c71 0 138 -37 138 -109c0 -78 -84 -126 -166 -126c-44 0 -123 24 -123 78c0 21 18 37 41 37c21 0 37 -12 37 -31c0 -18 -13 -23 -13 -30
c0 -24 45 -32 60 -32c59 0 92 48 92 98c0 68 -39 105 -102 105h-22z" />
    <glyph glyph-name="twosuperior" unicode="&#xb2;" horiz-adv-x="312" 
d="M19 287v37c110 143 202 189 202 284c0 46 -24 88 -78 88c-34 0 -62 -21 -62 -42c0 -19 22 -17 22 -41c0 -18 -15 -30 -34 -30c-27 0 -42 22 -42 44c0 59 74 91 127 91c77 0 139 -40 139 -116c0 -104 -133 -141 -227 -261h133c77 0 47 40 73 40h16l-3 -94h-266z" />
    <glyph glyph-name="registered" unicode="&#xae;" horiz-adv-x="737" 
d="M369 -15c-203 0 -367 164 -367 367c0 202 164 366 367 366c202 0 366 -164 366 -366c0 -203 -164 -367 -366 -367zM369 36c173 0 315 141 315 316c0 174 -142 315 -315 315c-175 0 -316 -141 -316 -315c0 -175 141 -316 316 -316zM311 346v-136c0 -19 8 -27 29 -27h18
v-20h-160v20h19c21 0 29 8 29 27v304c0 19 -8 27 -29 27h-19v20h180c42 0 138 -6 138 -98c0 -63 -51 -98 -108 -105v-2c90 -17 82 -181 155 -173v-20h-47c-114 0 -74 183 -175 183h-30zM311 369h23c61 0 117 14 117 87c0 58 -37 85 -93 85h-18c-21 0 -29 -8 -29 -27v-145z
" />
    <glyph glyph-name="minus" unicode="&#x2212;" 
d="M73 212v54h374v-54h-374z" />
    <glyph glyph-name="eth" unicode="&#xf0;" horiz-adv-x="580" 
d="M150 244c0 -94 24 -222 142 -222c113 0 138 124 138 212c0 202 -96 222 -142 222c-111 0 -138 -124 -138 -212zM340 653l140 68l36 -34l-133 -64c95 -78 158 -195 158 -351c0 -179 -103 -287 -248 -287c-142 0 -254 105 -254 250c0 141 103 258 248 258
c37 0 71 -5 111 -23c-18 48 -48 88 -84 120l-158 -77l-36 34l154 74c-45 32 -95 55 -140 71l45 29c59 -15 114 -37 161 -68z" />
    <glyph glyph-name="multiply" unicode="&#xd7;" 
d="M409 427l38 -38l-149 -149l149 -149l-38 -38l-149 149l-149 -149l-38 38l149 149l-149 149l38 38l149 -149z" />
    <glyph glyph-name="threesuperior" unicode="&#xb3;" horiz-adv-x="312" 
d="M104 503v22h22c7 0 86 6 86 86c0 44 -25 85 -78 85c-17 0 -50 -8 -50 -29c0 -12 15 -19 15 -34c0 -18 -20 -30 -38 -30c-22 0 -40 20 -40 40c0 53 75 75 123 75c68 0 137 -35 137 -105c0 -62 -57 -96 -119 -98v-2c71 0 138 -37 138 -109c0 -78 -84 -126 -166 -126
c-44 0 -123 24 -123 78c0 21 18 37 41 37c21 0 37 -12 37 -31c0 -18 -13 -23 -13 -30c0 -24 45 -32 60 -32c59 0 92 48 92 98c0 68 -39 105 -102 105h-22z" />
    <glyph glyph-name="copyright" unicode="&#xa9;" horiz-adv-x="737" 
d="M734 351c-2 -201 -165 -366 -368 -366c-200 0 -365 165 -365 366c0 202 165 366 365 367c203 0 368 -163 368 -367zM684 351c0 176 -143 316 -318 316c-174 0 -314 -143 -314 -316c0 -174 141 -315 314 -315c174 0 318 140 318 315zM524 528v-107h-31
c-4 61 -40 103 -106 103c-95 0 -136 -82 -136 -167c0 -87 46 -180 144 -180c48 0 95 29 115 72l25 -9c-28 -66 -100 -98 -168 -98c-118 0 -196 88 -196 205c0 123 84 208 208 208c48 0 99 -11 145 -27z" />
    <glyph glyph-name="Aacute" unicode="&#xc1;" horiz-adv-x="660" 
d="M430 244l-121 293l-119 -293h240zM479 120l-32 76h-277l-25 -65c-6 -15 -17 -42 -17 -58c0 -45 51 -15 51 -55v-18h-178v18c0 43 40 -10 86 102l196 481l-12 30c-4 9 -14 30 -14 40c0 13 35 30 41 34c2 1 33 21 38 21s9 -16 10 -18l252 -610c38 -93 69 -34 69 -80v-18
h-224v18c0 38 52 9 52 48c0 16 -10 40 -16 54zM240 740l-24 38l117 92c18 15 44 38 69 38s43 -20 43 -44c0 -32 -28 -44 -53 -57l-22 -10z" />
    <glyph glyph-name="Acircumflex" unicode="&#xc2;" horiz-adv-x="660" 
d="M430 244l-121 293l-119 -293h240zM479 120l-32 76h-277l-25 -65c-6 -15 -17 -42 -17 -58c0 -45 51 -15 51 -55v-18h-178v18c0 43 40 -10 86 102l196 481l-12 30c-4 9 -14 30 -14 40c0 13 35 30 41 34c2 1 33 21 38 21s9 -16 10 -18l252 -610c38 -93 69 -34 69 -80v-18
h-224v18c0 38 52 9 52 48c0 16 -10 40 -16 54zM520 809l-16 -34l-120 38c-17 5 -36 11 -54 11s-37 -6 -54 -11l-120 -38l-16 34l102 56c31 17 59 33 88 33s57 -16 88 -33z" />
    <glyph glyph-name="Adieresis" unicode="&#xc4;" horiz-adv-x="660" 
d="M430 244l-121 293l-119 -293h240zM479 120l-32 76h-277l-25 -65c-6 -15 -17 -42 -17 -58c0 -45 51 -15 51 -55v-18h-178v18c0 43 40 -10 86 102l196 481l-12 30c-4 9 -14 30 -14 40c0 13 35 30 41 34c2 1 33 21 38 21s9 -16 10 -18l252 -610c38 -93 69 -34 69 -80v-18
h-224v18c0 38 52 9 52 48c0 16 -10 40 -16 54zM223 897c33 0 61 -28 61 -61s-28 -61 -61 -61s-61 28 -61 61s28 61 61 61zM397 897c33 0 61 -28 61 -61s-28 -61 -61 -61s-61 28 -61 61s28 61 61 61z" />
    <glyph glyph-name="Agrave" unicode="&#xc0;" horiz-adv-x="660" 
d="M430 244l-121 293l-119 -293h240zM479 120l-32 76h-277l-25 -65c-6 -15 -17 -42 -17 -58c0 -45 51 -15 51 -55v-18h-178v18c0 43 40 -10 86 102l196 481l-12 30c-4 9 -14 30 -14 40c0 13 35 30 41 34c2 1 33 21 38 21s9 -16 10 -18l252 -610c38 -93 69 -34 69 -80v-18
h-224v18c0 38 52 9 52 48c0 16 -10 40 -16 54zM390 740l-130 57l-22 10c-25 12 -53 25 -53 56c0 25 18 45 43 45s51 -23 69 -38l117 -92z" />
    <glyph glyph-name="Aring" unicode="&#xc5;" horiz-adv-x="660" 
d="M430 244l-121 293l-119 -293h240zM479 120l-32 76h-277l-25 -65c-6 -15 -17 -42 -17 -58c0 -45 51 -15 51 -55v-18h-178v18c0 43 40 -10 86 102l196 481l-12 30c-4 9 -14 30 -14 40c0 13 35 30 41 34c2 1 33 21 38 21s9 -16 10 -18l252 -610c38 -93 69 -34 69 -80v-18
h-224v18c0 38 52 9 52 48c0 16 -10 40 -16 54zM320 931c51 0 93 -42 93 -93s-42 -93 -93 -93s-93 42 -93 93s42 93 93 93zM320 885c-26 0 -47 -21 -47 -47s21 -47 47 -47s47 21 47 47s-21 47 -47 47z" />
    <glyph glyph-name="Atilde" unicode="&#xc3;" horiz-adv-x="660" 
d="M430 244l-121 293l-119 -293h240zM479 120l-32 76h-277l-25 -65c-6 -15 -17 -42 -17 -58c0 -45 51 -15 51 -55v-18h-178v18c0 43 40 -10 86 102l196 481l-12 30c-4 9 -14 30 -14 40c0 13 35 30 41 34c2 1 33 21 38 21s9 -16 10 -18l252 -610c38 -93 69 -34 69 -80v-18
h-224v18c0 38 52 9 52 48c0 16 -10 40 -16 54zM191 775l-4 6c-4 7 -9 12 -9 20c0 35 70 66 99 66c22 0 45 -9 67 -17c21 -9 42 -18 58 -18c23 0 46 13 64 26l5 -6c4 -5 11 -12 11 -19c0 -29 -68 -70 -106 -70c-20 0 -41 9 -61 18c-20 8 -39 17 -56 17c-21 0 -50 -14 -68 -23
z" />
    <glyph glyph-name="Ccedilla" unicode="&#xc7;" horiz-adv-x="640" 
d="M570 682v-184h-25c-61 0 -23 181 -195 181c-163 0 -196 -199 -196 -325c0 -133 49 -321 219 -321c97 0 141 60 186 112l34 -27c-61 -88 -127 -136 -238 -136c-204 0 -312 184 -312 370c0 162 99 369 301 369c102 0 146 -54 171 -54c9 0 14 7 16 15h39zM342 0l-35 -58
c8 0 16 1 24 1c45 0 94 -23 94 -75c0 -56 -66 -82 -113 -82c-16 0 -92 12 -92 35c0 7 12 22 14 28c22 -12 48 -25 74 -25c22 0 53 13 53 39c0 30 -28 45 -55 45c-15 0 -28 -5 -42 -11l-21 22l52 81h47z" />
    <glyph glyph-name="Eacute" unicode="&#xc9;" horiz-adv-x="580" 
d="M32 0v18c0 44 55 -11 55 72v523c0 83 -54 28 -54 72v18h405c21 0 48 4 67 15v-174h-19c-66 0 -6 114 -150 114h-146v-270h77c107 0 41 67 103 67h17v-184h-17c-65 0 -8 72 -103 72h-77v-298h167c190 0 97 138 172 138h18v-183h-515zM220 740l-24 38l117 92
c18 15 44 38 69 38s43 -20 43 -44c0 -32 -28 -44 -53 -57l-22 -10z" />
    <glyph glyph-name="Ecircumflex" unicode="&#xca;" horiz-adv-x="580" 
d="M32 0v18c0 44 55 -11 55 72v523c0 83 -54 28 -54 72v18h405c21 0 48 4 67 15v-174h-19c-66 0 -6 114 -150 114h-146v-270h77c107 0 41 67 103 67h17v-184h-17c-65 0 -8 72 -103 72h-77v-298h167c190 0 97 138 172 138h18v-183h-515zM480 809l-16 -34l-120 38
c-17 5 -36 11 -54 11s-37 -6 -54 -11l-120 -38l-16 34l102 56c31 17 59 33 88 33s57 -16 88 -33z" />
    <glyph glyph-name="Edieresis" unicode="&#xcb;" horiz-adv-x="580" 
d="M32 0v18c0 44 55 -11 55 72v523c0 83 -54 28 -54 72v18h405c21 0 48 4 67 15v-174h-19c-66 0 -6 114 -150 114h-146v-270h77c107 0 41 67 103 67h17v-184h-17c-65 0 -8 72 -103 72h-77v-298h167c190 0 97 138 172 138h18v-183h-515zM193 897c33 0 61 -28 61 -61
s-28 -61 -61 -61s-61 28 -61 61s28 61 61 61zM367 897c33 0 61 -28 61 -61s-28 -61 -61 -61s-61 28 -61 61s28 61 61 61z" />
    <glyph glyph-name="Egrave" unicode="&#xc8;" horiz-adv-x="580" 
d="M32 0v18c0 44 55 -11 55 72v523c0 83 -54 28 -54 72v18h405c21 0 48 4 67 15v-174h-19c-66 0 -6 114 -150 114h-146v-270h77c107 0 41 67 103 67h17v-184h-17c-65 0 -8 72 -103 72h-77v-298h167c190 0 97 138 172 138h18v-183h-515zM350 740l-130 57l-22 10
c-25 12 -53 25 -53 56c0 25 18 45 43 45s51 -23 69 -38l117 -92z" />
    <glyph glyph-name="Iacute" unicode="&#xcd;" horiz-adv-x="280" 
d="M246 0h-213v18c0 44 55 -11 55 72v523c0 83 -55 28 -55 72v18h213v-18c0 -44 -55 11 -55 -72v-523c0 -83 55 -28 55 -72v-18zM50 740l-24 38l117 92c18 15 44 38 69 38s43 -20 43 -44c0 -32 -28 -44 -53 -57l-22 -10z" />
    <glyph glyph-name="Icircumflex" unicode="&#xce;" horiz-adv-x="280" 
d="M246 0h-213v18c0 44 55 -11 55 72v523c0 83 -55 28 -55 72v18h213v-18c0 -44 -55 11 -55 -72v-523c0 -83 55 -28 55 -72v-18zM330 809l-16 -34l-120 38c-17 5 -36 11 -54 11s-37 -6 -54 -11l-120 -38l-16 34l102 56c31 17 59 33 88 33s57 -16 88 -33z" />
    <glyph glyph-name="Idieresis" unicode="&#xcf;" horiz-adv-x="280" 
d="M246 0h-213v18c0 44 55 -11 55 72v523c0 83 -55 28 -55 72v18h213v-18c0 -44 -55 11 -55 -72v-523c0 -83 55 -28 55 -72v-18zM53 897c33 0 61 -28 61 -61s-28 -61 -61 -61s-61 28 -61 61s28 61 61 61zM227 897c33 0 61 -28 61 -61s-28 -61 -61 -61s-61 28 -61 61
s28 61 61 61z" />
    <glyph glyph-name="Igrave" unicode="&#xcc;" horiz-adv-x="280" 
d="M246 0h-213v18c0 44 55 -11 55 72v523c0 83 -55 28 -55 72v18h213v-18c0 -44 -55 11 -55 -72v-523c0 -83 55 -28 55 -72v-18zM230 740l-130 57l-22 10c-25 12 -53 25 -53 56c0 25 18 45 43 45s51 -23 69 -38l117 -92z" />
    <glyph glyph-name="Ntilde" unicode="&#xd1;" horiz-adv-x="700" 
d="M150 626v-486c0 -140 69 -63 69 -122v-18h-187v18c0 59 63 -18 63 122v473c0 83 -57 28 -57 72v18h188l329 -500v360c0 140 -61 63 -61 122v18h177v-18c0 -59 -61 18 -61 -122v-563h-48zM211 775l-4 6c-4 7 -9 12 -9 20c0 35 70 66 99 66c22 0 45 -9 67 -17
c21 -9 42 -18 58 -18c23 0 46 13 64 26l5 -6c4 -5 11 -12 11 -19c0 -29 -68 -70 -106 -70c-20 0 -41 9 -61 18c-20 8 -39 17 -56 17c-21 0 -50 -14 -68 -23z" />
    <glyph glyph-name="Oacute" unicode="&#xd3;" horiz-adv-x="740" 
d="M364 -18c-202 0 -320 180 -320 370s130 369 332 369s320 -180 320 -370s-130 -369 -332 -369zM367 19c178 0 213 188 213 329c0 134 -29 336 -207 336s-213 -188 -213 -329c0 -134 29 -336 207 -336zM280 740l-24 38l117 92c18 15 44 38 69 38s43 -20 43 -44
c0 -32 -28 -44 -53 -57l-22 -10z" />
    <glyph glyph-name="Ocircumflex" unicode="&#xd4;" horiz-adv-x="740" 
d="M364 -18c-202 0 -320 180 -320 370s130 369 332 369s320 -180 320 -370s-130 -369 -332 -369zM367 19c178 0 213 188 213 329c0 134 -29 336 -207 336s-213 -188 -213 -329c0 -134 29 -336 207 -336zM560 809l-16 -34l-120 38c-17 5 -36 11 -54 11s-37 -6 -54 -11
l-120 -38l-16 34l102 56c31 17 59 33 88 33s57 -16 88 -33z" />
    <glyph glyph-name="Odieresis" unicode="&#xd6;" horiz-adv-x="740" 
d="M364 -18c-202 0 -320 180 -320 370s130 369 332 369s320 -180 320 -370s-130 -369 -332 -369zM367 19c178 0 213 188 213 329c0 134 -29 336 -207 336s-213 -188 -213 -329c0 -134 29 -336 207 -336zM283 897c33 0 61 -28 61 -61s-28 -61 -61 -61s-61 28 -61 61
s28 61 61 61zM457 897c33 0 61 -28 61 -61s-28 -61 -61 -61s-61 28 -61 61s28 61 61 61z" />
    <glyph glyph-name="Ograve" unicode="&#xd2;" horiz-adv-x="740" 
d="M364 -18c-202 0 -320 180 -320 370s130 369 332 369s320 -180 320 -370s-130 -369 -332 -369zM367 19c178 0 213 188 213 329c0 134 -29 336 -207 336s-213 -188 -213 -329c0 -134 29 -336 207 -336zM410 740l-130 57l-22 10c-25 12 -53 25 -53 56c0 25 18 45 43 45
s51 -23 69 -38l117 -92z" />
    <glyph glyph-name="Otilde" unicode="&#xd5;" horiz-adv-x="740" 
d="M364 -18c-202 0 -320 180 -320 370s130 369 332 369s320 -180 320 -370s-130 -369 -332 -369zM367 19c178 0 213 188 213 329c0 134 -29 336 -207 336s-213 -188 -213 -329c0 -134 29 -336 207 -336zM231 775l-4 6c-4 7 -9 12 -9 20c0 35 70 66 99 66c22 0 45 -9 67 -17
c21 -9 42 -18 58 -18c23 0 46 13 64 26l5 -6c4 -5 11 -12 11 -19c0 -29 -68 -70 -106 -70c-20 0 -41 9 -61 18c-20 8 -39 17 -56 17c-21 0 -50 -14 -68 -23z" />
    <glyph glyph-name="Scaron" unicode="&#x160;" 
d="M33 182h32c37 0 25 -155 188 -155c81 0 150 55 150 139c0 199 -355 113 -355 368c0 107 88 187 195 187c76 0 111 -41 127 -41c8 0 15 7 20 13h39v-159h-31c-44 0 -21 145 -156 145c-64 0 -117 -42 -117 -108c0 -172 357 -98 357 -359c0 -129 -102 -230 -231 -230
c-64 0 -128 33 -147 33c-11 0 -21 -11 -25 -20h-46v187zM424 898l16 -34l-102 -56c-31 -17 -59 -33 -88 -33s-57 16 -88 33l-102 56l16 34l120 -38c17 -5 36 -11 54 -11s37 6 54 11z" />
    <glyph glyph-name="Uacute" unicode="&#xda;" horiz-adv-x="680" 
d="M485 703h174v-18c0 -53 -58 22 -58 -122v-339c0 -159 -103 -242 -257 -242c-162 0 -260 79 -260 235v396c0 83 -55 28 -55 72v18h213v-18c0 -44 -55 11 -55 -72v-405c0 -112 58 -178 172 -178c173 0 187 146 187 200v333c0 144 -61 69 -61 122v18zM300 740l-24 38l117 92
c18 15 44 38 69 38s43 -20 43 -44c0 -32 -28 -44 -53 -57l-22 -10z" />
    <glyph glyph-name="Ucircumflex" unicode="&#xdb;" horiz-adv-x="680" 
d="M485 703h174v-18c0 -53 -58 22 -58 -122v-339c0 -159 -103 -242 -257 -242c-162 0 -260 79 -260 235v396c0 83 -55 28 -55 72v18h213v-18c0 -44 -55 11 -55 -72v-405c0 -112 58 -178 172 -178c173 0 187 146 187 200v333c0 144 -61 69 -61 122v18zM530 809l-16 -34
l-120 38c-17 5 -36 11 -54 11s-37 -6 -54 -11l-120 -38l-16 34l102 56c31 17 59 33 88 33s57 -16 88 -33z" />
    <glyph glyph-name="Udieresis" unicode="&#xdc;" horiz-adv-x="680" 
d="M485 703h174v-18c0 -53 -58 22 -58 -122v-339c0 -159 -103 -242 -257 -242c-162 0 -260 79 -260 235v396c0 83 -55 28 -55 72v18h213v-18c0 -44 -55 11 -55 -72v-405c0 -112 58 -178 172 -178c173 0 187 146 187 200v333c0 144 -61 69 -61 122v18zM263 897
c33 0 61 -28 61 -61s-28 -61 -61 -61s-61 28 -61 61s28 61 61 61zM437 897c33 0 61 -28 61 -61s-28 -61 -61 -61s-61 28 -61 61s28 61 61 61z" />
    <glyph glyph-name="Ugrave" unicode="&#xd9;" horiz-adv-x="680" 
d="M485 703h174v-18c0 -53 -58 22 -58 -122v-339c0 -159 -103 -242 -257 -242c-162 0 -260 79 -260 235v396c0 83 -55 28 -55 72v18h213v-18c0 -44 -55 11 -55 -72v-405c0 -112 58 -178 172 -178c173 0 187 146 187 200v333c0 144 -61 69 -61 122v18zM410 740l-130 57
l-22 10c-25 12 -53 25 -53 56c0 25 18 45 43 45s51 -23 69 -38l117 -92z" />
    <glyph glyph-name="Yacute" unicode="&#xdd;" horiz-adv-x="660" 
d="M355 352l136 236c7 13 26 42 26 57c0 27 -51 11 -51 40v18h178v-18c0 -36 -22 15 -83 -86l-183 -301v-208c0 -83 55 -28 55 -72v-18h-214v18c0 44 56 -11 56 72v201l-190 316c-55 91 -79 39 -79 78v18h227v-18c0 -33 -47 -7 -47 -41c0 -12 15 -36 21 -45zM300 740l-24 38
l117 92c18 15 44 38 69 38s43 -20 43 -44c0 -32 -28 -44 -53 -57l-22 -10z" />
    <glyph glyph-name="Ydieresis" unicode="&#x178;" horiz-adv-x="660" 
d="M355 352l136 236c7 13 26 42 26 57c0 27 -51 11 -51 40v18h178v-18c0 -36 -22 15 -83 -86l-183 -301v-208c0 -83 55 -28 55 -72v-18h-214v18c0 44 56 -11 56 72v201l-190 316c-55 91 -79 39 -79 78v18h227v-18c0 -33 -47 -7 -47 -41c0 -12 15 -36 21 -45zM253 897
c33 0 61 -28 61 -61s-28 -61 -61 -61s-61 28 -61 61s28 61 61 61zM427 897c33 0 61 -28 61 -61s-28 -61 -61 -61s-61 28 -61 61s28 61 61 61z" />
    <glyph glyph-name="Zcaron" unicode="&#x17d;" horiz-adv-x="580" 
d="M135 45h204c198 0 103 127 180 127h18v-172h-524v43l403 615h-157c-207 0 -102 -115 -178 -115h-19v175c19 -11 46 -15 67 -15h408v-44zM444 898l16 -34l-102 -56c-31 -17 -59 -33 -88 -33s-57 16 -88 33l-102 56l16 34l120 -38c17 -5 36 -11 54 -11s37 6 54 11z" />
    <glyph glyph-name="aacute" unicode="&#xe1;" 
d="M337 169v96c-81 -7 -195 -41 -195 -142c0 -51 29 -90 82 -90c36 0 113 24 113 136zM334 302c0 64 -13 154 -99 154c-31 0 -39 -16 -42 -43c-3 -32 -26 -54 -58 -54c-28 0 -52 19 -52 49c0 62 105 85 151 85c198 0 199 -162 199 -190v-156c0 -31 -3 -108 44 -108
c12 0 19 6 27 13l4 -6c3 -4 8 -9 8 -15c0 -20 -42 -46 -77 -46c-46 0 -77 28 -92 70c-43 -46 -80 -70 -144 -70c-83 0 -167 49 -167 140c0 135 198 167 298 177zM180 535l-24 38l117 92c18 15 44 38 69 38s43 -20 43 -44c0 -32 -28 -44 -53 -57l-22 -10z" />
    <glyph glyph-name="acircumflex" unicode="&#xe2;" 
d="M337 169v96c-81 -7 -195 -41 -195 -142c0 -51 29 -90 82 -90c36 0 113 24 113 136zM334 302c0 64 -13 154 -99 154c-31 0 -39 -16 -42 -43c-3 -32 -26 -54 -58 -54c-28 0 -52 19 -52 49c0 62 105 85 151 85c198 0 199 -162 199 -190v-156c0 -31 -3 -108 44 -108
c12 0 19 6 27 13l4 -6c3 -4 8 -9 8 -15c0 -20 -42 -46 -77 -46c-46 0 -77 28 -92 70c-43 -46 -80 -70 -144 -70c-83 0 -167 49 -167 140c0 135 198 167 298 177zM430 604l-16 -34l-120 38c-17 5 -36 11 -54 11s-37 -6 -54 -11l-120 -38l-16 34l102 56c31 17 59 33 88 33
s57 -16 88 -33z" />
    <glyph glyph-name="adieresis" unicode="&#xe4;" 
d="M337 169v96c-81 -7 -195 -41 -195 -142c0 -51 29 -90 82 -90c36 0 113 24 113 136zM334 302c0 64 -13 154 -99 154c-31 0 -39 -16 -42 -43c-3 -32 -26 -54 -58 -54c-28 0 -52 19 -52 49c0 62 105 85 151 85c198 0 199 -162 199 -190v-156c0 -31 -3 -108 44 -108
c12 0 19 6 27 13l4 -6c3 -4 8 -9 8 -15c0 -20 -42 -46 -77 -46c-46 0 -77 28 -92 70c-43 -46 -80 -70 -144 -70c-83 0 -167 49 -167 140c0 135 198 167 298 177zM143 692c33 0 61 -28 61 -61s-28 -61 -61 -61s-61 28 -61 61s28 61 61 61zM317 692c33 0 61 -28 61 -61
s-28 -61 -61 -61s-61 28 -61 61s28 61 61 61z" />
    <glyph glyph-name="agrave" unicode="&#xe0;" 
d="M337 169v96c-81 -7 -195 -41 -195 -142c0 -51 29 -90 82 -90c36 0 113 24 113 136zM334 302c0 64 -13 154 -99 154c-31 0 -39 -16 -42 -43c-3 -32 -26 -54 -58 -54c-28 0 -52 19 -52 49c0 62 105 85 151 85c198 0 199 -162 199 -190v-156c0 -31 -3 -108 44 -108
c12 0 19 6 27 13l4 -6c3 -4 8 -9 8 -15c0 -20 -42 -46 -77 -46c-46 0 -77 28 -92 70c-43 -46 -80 -70 -144 -70c-83 0 -167 49 -167 140c0 135 198 167 298 177zM310 535l-130 57l-22 10c-25 12 -53 25 -53 56c0 25 18 45 43 45s51 -23 69 -38l117 -92z" />
    <glyph glyph-name="aring" unicode="&#xe5;" 
d="M337 169v96c-81 -7 -195 -41 -195 -142c0 -51 29 -90 82 -90c36 0 113 24 113 136zM334 302c0 64 -13 154 -99 154c-31 0 -39 -16 -42 -43c-3 -32 -26 -54 -58 -54c-28 0 -52 19 -52 49c0 62 105 85 151 85c198 0 199 -162 199 -190v-156c0 -31 -3 -108 44 -108
c12 0 19 6 27 13l4 -6c3 -4 8 -9 8 -15c0 -20 -42 -46 -77 -46c-46 0 -77 28 -92 70c-43 -46 -80 -70 -144 -70c-83 0 -167 49 -167 140c0 135 198 167 298 177zM250 736c51 0 93 -42 93 -93s-42 -93 -93 -93s-93 42 -93 93s42 93 93 93zM250 690c-26 0 -47 -21 -47 -47
s21 -47 47 -47s47 21 47 47s-21 47 -47 47z" />
    <glyph glyph-name="atilde" unicode="&#xe3;" 
d="M337 169v96c-81 -7 -195 -41 -195 -142c0 -51 29 -90 82 -90c36 0 113 24 113 136zM334 302c0 64 -13 154 -99 154c-31 0 -39 -16 -42 -43c-3 -32 -26 -54 -58 -54c-28 0 -52 19 -52 49c0 62 105 85 151 85c198 0 199 -162 199 -190v-156c0 -31 -3 -108 44 -108
c12 0 19 6 27 13l4 -6c3 -4 8 -9 8 -15c0 -20 -42 -46 -77 -46c-46 0 -77 28 -92 70c-43 -46 -80 -70 -144 -70c-83 0 -167 49 -167 140c0 135 198 167 298 177zM101 570l-4 6c-4 7 -9 12 -9 20c0 35 70 66 99 66c22 0 45 -9 67 -17c21 -9 42 -18 58 -18c23 0 46 13 64 26
l5 -6c4 -5 11 -12 11 -19c0 -29 -68 -70 -106 -70c-20 0 -41 9 -61 18c-20 8 -39 17 -56 17c-21 0 -50 -14 -68 -23z" />
    <glyph glyph-name="ccedilla" unicode="&#xe7;" 
d="M452 87l31 -28c-48 -52 -106 -74 -176 -74c-152 0 -268 104 -268 259c0 143 119 249 259 249c62 0 167 -21 167 -101c0 -32 -26 -55 -58 -55c-25 0 -54 16 -54 45c0 13 5 22 5 34c0 31 -40 40 -65 40c-104 0 -143 -114 -143 -202c0 -107 55 -221 177 -221
c50 0 90 21 125 54zM282 0l-35 -58c8 0 16 1 24 1c45 0 94 -23 94 -75c0 -56 -66 -82 -113 -82c-16 0 -92 12 -92 35c0 7 12 22 14 28c22 -12 48 -25 74 -25c22 0 53 13 53 39c0 30 -28 45 -55 45c-15 0 -28 -5 -42 -11l-21 22l52 81h47z" />
    <glyph glyph-name="eacute" unicode="&#xe9;" 
d="M488 255h-346c-6 -109 52 -222 174 -222c63 0 108 36 147 83l34 -26c-51 -69 -114 -105 -201 -105c-149 0 -257 110 -257 259c0 141 96 249 240 249c137 0 213 -108 209 -238zM145 303h237c5 73 -24 148 -109 148c-84 0 -122 -73 -128 -148zM210 535l-24 38l117 92
c18 15 44 38 69 38s43 -20 43 -44c0 -32 -28 -44 -53 -57l-22 -10z" />
    <glyph glyph-name="ecircumflex" unicode="&#xea;" 
d="M488 255h-346c-6 -109 52 -222 174 -222c63 0 108 36 147 83l34 -26c-51 -69 -114 -105 -201 -105c-149 0 -257 110 -257 259c0 141 96 249 240 249c137 0 213 -108 209 -238zM145 303h237c5 73 -24 148 -109 148c-84 0 -122 -73 -128 -148zM460 604l-16 -34l-120 38
c-17 5 -36 11 -54 11s-37 -6 -54 -11l-120 -38l-16 34l102 56c31 17 59 33 88 33s57 -16 88 -33z" />
    <glyph glyph-name="edieresis" unicode="&#xeb;" 
d="M488 255h-346c-6 -109 52 -222 174 -222c63 0 108 36 147 83l34 -26c-51 -69 -114 -105 -201 -105c-149 0 -257 110 -257 259c0 141 96 249 240 249c137 0 213 -108 209 -238zM145 303h237c5 73 -24 148 -109 148c-84 0 -122 -73 -128 -148zM173 692c33 0 61 -28 61 -61
s-28 -61 -61 -61s-61 28 -61 61s28 61 61 61zM347 692c33 0 61 -28 61 -61s-28 -61 -61 -61s-61 28 -61 61s28 61 61 61z" />
    <glyph glyph-name="egrave" unicode="&#xe8;" 
d="M488 255h-346c-6 -109 52 -222 174 -222c63 0 108 36 147 83l34 -26c-51 -69 -114 -105 -201 -105c-149 0 -257 110 -257 259c0 141 96 249 240 249c137 0 213 -108 209 -238zM145 303h237c5 73 -24 148 -109 148c-84 0 -122 -73 -128 -148zM320 535l-130 57l-22 10
c-25 12 -53 25 -53 56c0 25 18 45 43 45s51 -23 69 -38l117 -92z" />
    <glyph glyph-name="iacute" unicode="&#xed;" horiz-adv-x="280" 
d="M187 482v-397c0 -68 48 -24 48 -67v-18h-193v18c0 43 49 -1 49 67v308c0 68 -49 24 -49 67v18zM50 535l-24 38l117 92c18 15 44 38 69 38s43 -20 43 -44c0 -32 -28 -44 -53 -57l-22 -10z" />
    <glyph glyph-name="icircumflex" unicode="&#xee;" horiz-adv-x="280" 
d="M187 482v-397c0 -68 48 -24 48 -67v-18h-193v18c0 43 49 -1 49 67v308c0 68 -49 24 -49 67v18zM320 604l-16 -34l-120 38c-17 5 -36 11 -54 11s-37 -6 -54 -11l-120 -38l-16 34l102 56c31 17 59 33 88 33s57 -16 88 -33z" />
    <glyph glyph-name="idieresis" unicode="&#xef;" horiz-adv-x="280" 
d="M187 482v-397c0 -68 48 -24 48 -67v-18h-193v18c0 43 49 -1 49 67v308c0 68 -49 24 -49 67v18zM43 692c33 0 61 -28 61 -61s-28 -61 -61 -61s-61 28 -61 61s28 61 61 61zM217 692c33 0 61 -28 61 -61s-28 -61 -61 -61s-61 28 -61 61s28 61 61 61z" />
    <glyph glyph-name="igrave" unicode="&#xec;" horiz-adv-x="280" 
d="M187 482v-397c0 -68 48 -24 48 -67v-18h-193v18c0 43 49 -1 49 67v308c0 68 -49 24 -49 67v18zM200 535l-130 57l-22 10c-25 12 -53 25 -53 56c0 25 18 45 43 45s51 -23 69 -38l117 -92z" />
    <glyph glyph-name="ntilde" unicode="&#xf1;" horiz-adv-x="580" 
d="M37 458v20l139 4v-50c46 42 93 61 155 61c109 0 159 -51 159 -135v-273c0 -71 53 -22 53 -67v-18h-203v18c0 45 54 -4 54 67v245c0 63 -8 115 -100 115c-38 0 -91 -25 -112 -59v-301c0 -71 54 -22 54 -67v-18h-199v18c0 43 49 -1 49 67v308c0 68 -49 25 -49 65zM131 570
l-4 6c-4 7 -9 12 -9 20c0 35 70 66 99 66c22 0 45 -9 67 -17c21 -9 42 -18 58 -18c23 0 46 13 64 26l5 -6c4 -5 11 -12 11 -19c0 -29 -68 -70 -106 -70c-20 0 -41 9 -61 18c-20 8 -39 17 -56 17c-21 0 -50 -14 -68 -23z" />
    <glyph glyph-name="oacute" unicode="&#xf3;" horiz-adv-x="580" 
d="M287 493c142 0 254 -105 254 -250c0 -141 -103 -258 -248 -258c-142 0 -254 105 -254 250c0 141 103 258 248 258zM288 456c-111 0 -138 -124 -138 -212c0 -94 24 -222 142 -222c113 0 138 124 138 212c0 94 -22 222 -142 222zM210 535l-24 38l117 92c18 15 44 38 69 38
s43 -20 43 -44c0 -32 -28 -44 -53 -57l-22 -10z" />
    <glyph glyph-name="ocircumflex" unicode="&#xf4;" horiz-adv-x="580" 
d="M287 493c142 0 254 -105 254 -250c0 -141 -103 -258 -248 -258c-142 0 -254 105 -254 250c0 141 103 258 248 258zM288 456c-111 0 -138 -124 -138 -212c0 -94 24 -222 142 -222c113 0 138 124 138 212c0 94 -22 222 -142 222zM480 604l-16 -34l-120 38
c-17 5 -36 11 -54 11s-37 -6 -54 -11l-120 -38l-16 34l102 56c31 17 59 33 88 33s57 -16 88 -33z" />
    <glyph glyph-name="odieresis" unicode="&#xf6;" horiz-adv-x="580" 
d="M287 493c142 0 254 -105 254 -250c0 -141 -103 -258 -248 -258c-142 0 -254 105 -254 250c0 141 103 258 248 258zM288 456c-111 0 -138 -124 -138 -212c0 -94 24 -222 142 -222c113 0 138 124 138 212c0 94 -22 222 -142 222zM203 692c33 0 61 -28 61 -61
s-28 -61 -61 -61s-61 28 -61 61s28 61 61 61zM377 692c33 0 61 -28 61 -61s-28 -61 -61 -61s-61 28 -61 61s28 61 61 61z" />
    <glyph glyph-name="ograve" unicode="&#xf2;" horiz-adv-x="580" 
d="M287 493c142 0 254 -105 254 -250c0 -141 -103 -258 -248 -258c-142 0 -254 105 -254 250c0 141 103 258 248 258zM288 456c-111 0 -138 -124 -138 -212c0 -94 24 -222 142 -222c113 0 138 124 138 212c0 94 -22 222 -142 222zM340 535l-130 57l-22 10
c-25 12 -53 25 -53 56c0 25 18 45 43 45s51 -23 69 -38l117 -92z" />
    <glyph glyph-name="otilde" unicode="&#xf5;" horiz-adv-x="580" 
d="M287 493c142 0 254 -105 254 -250c0 -141 -103 -258 -248 -258c-142 0 -254 105 -254 250c0 141 103 258 248 258zM288 456c-111 0 -138 -124 -138 -212c0 -94 24 -222 142 -222c113 0 138 124 138 212c0 94 -22 222 -142 222zM151 570l-4 6c-4 7 -9 12 -9 20
c0 35 70 66 99 66c22 0 45 -9 67 -17c21 -9 42 -18 58 -18c23 0 46 13 64 26l5 -6c4 -5 11 -12 11 -19c0 -29 -68 -70 -106 -70c-20 0 -41 9 -61 18c-20 8 -39 17 -56 17c-21 0 -50 -14 -68 -23z" />
    <glyph glyph-name="scaron" unicode="&#x161;" horiz-adv-x="480" 
d="M217 -15c-54 0 -186 21 -186 96c0 32 28 53 59 53c25 0 59 -16 59 -45c0 -8 -5 -18 -5 -26c0 -34 46 -36 70 -36c50 0 113 24 113 81c0 126 -273 70 -273 239c0 99 113 146 198 146c50 0 147 -17 147 -84c0 -32 -28 -49 -57 -49c-25 0 -56 14 -56 44c0 7 2 14 2 21
c0 23 -35 26 -52 26c-39 0 -91 -25 -91 -70c0 -118 278 -66 278 -238c0 -107 -112 -158 -206 -158zM404 693l16 -34l-102 -56c-31 -17 -59 -33 -88 -33s-57 16 -88 33l-102 56l16 34l120 -38c17 -5 36 -11 54 -11s37 6 54 11z" />
    <glyph glyph-name="uacute" unicode="&#xfa;" horiz-adv-x="580" 
d="M399 91v302c0 71 -54 22 -54 67v18l150 4v-397c0 -68 52 -25 52 -65v-20h-146v44c-39 -35 -101 -59 -155 -59c-101 0 -161 59 -161 156v252c0 70 -52 22 -52 67v18l148 4v-339c0 -35 2 -104 105 -104c48 0 78 24 113 52zM220 535l-24 38l117 92c18 15 44 38 69 38
s43 -20 43 -44c0 -32 -28 -44 -53 -57l-22 -10z" />
    <glyph glyph-name="ucircumflex" unicode="&#xfb;" horiz-adv-x="580" 
d="M399 91v302c0 71 -54 22 -54 67v18l150 4v-397c0 -68 52 -25 52 -65v-20h-146v44c-39 -35 -101 -59 -155 -59c-101 0 -161 59 -161 156v252c0 70 -52 22 -52 67v18l148 4v-339c0 -35 2 -104 105 -104c48 0 78 24 113 52zM470 604l-16 -34l-120 38c-17 5 -36 11 -54 11
s-37 -6 -54 -11l-120 -38l-16 34l102 56c31 17 59 33 88 33s57 -16 88 -33z" />
    <glyph glyph-name="udieresis" unicode="&#xfc;" horiz-adv-x="580" 
d="M399 91v302c0 71 -54 22 -54 67v18l150 4v-397c0 -68 52 -25 52 -65v-20h-146v44c-39 -35 -101 -59 -155 -59c-101 0 -161 59 -161 156v252c0 70 -52 22 -52 67v18l148 4v-339c0 -35 2 -104 105 -104c48 0 78 24 113 52zM193 692c33 0 61 -28 61 -61s-28 -61 -61 -61
s-61 28 -61 61s28 61 61 61zM367 692c33 0 61 -28 61 -61s-28 -61 -61 -61s-61 28 -61 61s28 61 61 61z" />
    <glyph glyph-name="ugrave" unicode="&#xf9;" horiz-adv-x="580" 
d="M399 91v302c0 71 -54 22 -54 67v18l150 4v-397c0 -68 52 -25 52 -65v-20h-146v44c-39 -35 -101 -59 -155 -59c-101 0 -161 59 -161 156v252c0 70 -52 22 -52 67v18l148 4v-339c0 -35 2 -104 105 -104c48 0 78 24 113 52zM330 535l-130 57l-22 10c-25 12 -53 25 -53 56
c0 25 18 45 43 45s51 -23 69 -38l117 -92z" />
    <glyph glyph-name="yacute" unicode="&#xfd;" horiz-adv-x="540" 
d="M306 124l80 189c8 20 29 73 29 94c0 43 -52 15 -52 53v18h180v-18c0 -42 -30 10 -68 -77l-186 -428c-38 -87 -84 -167 -190 -167c-33 0 -80 19 -80 60c0 33 26 52 57 52c67 0 39 -50 67 -50c50 0 94 110 111 150l-177 383c-41 89 -75 33 -75 77v18h228v-18
c0 -39 -56 -14 -56 -44c0 -11 11 -33 16 -43zM220 535l-24 38l117 92c18 15 44 38 69 38s43 -20 43 -44c0 -32 -28 -44 -53 -57l-22 -10z" />
    <glyph glyph-name="ydieresis" unicode="&#xff;" horiz-adv-x="540" 
d="M306 124l80 189c8 20 29 73 29 94c0 43 -52 15 -52 53v18h180v-18c0 -42 -30 10 -68 -77l-186 -428c-38 -87 -84 -167 -190 -167c-33 0 -80 19 -80 60c0 33 26 52 57 52c67 0 39 -50 67 -50c50 0 94 110 111 150l-177 383c-41 89 -75 33 -75 77v18h228v-18
c0 -39 -56 -14 -56 -44c0 -11 11 -33 16 -43zM193 692c33 0 61 -28 61 -61s-28 -61 -61 -61s-61 28 -61 61s28 61 61 61zM367 692c33 0 61 -28 61 -61s-28 -61 -61 -61s-61 28 -61 61s28 61 61 61z" />
    <glyph glyph-name="zcaron" unicode="&#x17e;" horiz-adv-x="480" 
d="M431 478v-50l-278 -383h128c145 0 78 78 132 78h18v-123h-396v43l288 390h-95c-173 0 -92 -78 -148 -78h-18v123h369zM404 693l16 -34l-102 -56c-31 -17 -59 -33 -88 -33s-57 16 -88 33l-102 56l16 34l120 -38c17 -5 36 -11 54 -11s37 6 54 11z" />
  </font>
</defs>
</svg>
